<svg xmlns="http://www.w3.org/2000/svg" xmlns:xlink="http://www.w3.org/1999/xlink" width="500" zoomAndPan="magnify" viewBox="0 0 375 374.999991" height="500" preserveAspectRatio="xMidYMid meet" version="1.0"><defs><g/><clipPath id="58a584c60a"><path d="M 38 48 L 63 48 L 63 60.960938 L 38 60.960938 Z M 38 48 " clip-rule="nonzero"/></clipPath><clipPath id="9f918a3994"><path d="M 13 48 L 39 48 L 39 60.960938 L 13 60.960938 Z M 13 48 " clip-rule="nonzero"/></clipPath><clipPath id="93d58532a2"><path d="M 37 24 L 76.40625 24 L 76.40625 52 L 37 52 Z M 37 24 " clip-rule="nonzero"/></clipPath><clipPath id="00bcb23335"><rect x="0" width="375" y="0" height="61"/></clipPath></defs><g transform="matrix(1, 0, 0, 1, 0, 156)"><g clip-path="url(#00bcb23335)"><g fill="#222838" fill-opacity="1"><g transform="translate(98.346765, 24.271357)"><g><path d="M 0.203125 2.8125 C -0.253906 2.8125 -0.648438 2.757812 -0.984375 2.65625 L -0.984375 0.984375 C -0.640625 1.066406 -0.328125 1.109375 -0.046875 1.109375 C 0.398438 1.109375 0.71875 0.96875 0.90625 0.6875 C 1.101562 0.414062 1.203125 -0.0078125 1.203125 -0.59375 L 1.203125 -9.53125 L 3.21875 -9.53125 L 3.21875 -0.609375 C 3.21875 0.503906 2.960938 1.351562 2.453125 1.9375 C 1.953125 2.519531 1.203125 2.8125 0.203125 2.8125 Z M 0.203125 2.8125 "/></g></g></g><g fill="#222838" fill-opacity="1"><g transform="translate(108.115849, 24.271357)"><g><path d="M 8.96875 -9.53125 L 8.96875 -3.359375 C 8.96875 -2.660156 8.804688 -2.046875 8.484375 -1.515625 C 8.171875 -0.984375 7.71875 -0.578125 7.125 -0.296875 C 6.53125 -0.015625 5.828125 0.125 5.015625 0.125 C 3.785156 0.125 2.832031 -0.1875 2.15625 -0.8125 C 1.476562 -1.4375 1.140625 -2.296875 1.140625 -3.390625 L 1.140625 -9.53125 L 3.15625 -9.53125 L 3.15625 -3.703125 C 3.15625 -2.960938 3.300781 -2.421875 3.59375 -2.078125 C 3.882812 -1.734375 4.375 -1.5625 5.0625 -1.5625 C 5.71875 -1.5625 6.195312 -1.734375 6.5 -2.078125 C 6.800781 -2.429688 6.953125 -2.976562 6.953125 -3.71875 L 6.953125 -9.53125 Z M 8.96875 -9.53125 "/></g></g></g><g fill="#222838" fill-opacity="1"><g transform="translate(123.558629, 24.271357)"><g><path d="M 1.203125 0 L 1.203125 -9.53125 L 3.21875 -9.53125 L 3.21875 -1.671875 L 7.09375 -1.671875 L 7.09375 0 Z M 1.203125 0 "/></g></g></g><g fill="#222838" fill-opacity="1"><g transform="translate(136.451507, 24.271357)"><g><path d="M 4.765625 0 L 0.4375 0 L 0.4375 -1.140625 L 1.59375 -1.6875 L 1.59375 -7.859375 L 0.4375 -8.390625 L 0.4375 -9.53125 L 4.765625 -9.53125 L 4.765625 -8.390625 L 3.609375 -7.859375 L 3.609375 -1.6875 L 4.765625 -1.140625 Z M 4.765625 0 "/></g></g></g><g fill="#222838" fill-opacity="1"><g transform="translate(146.996648, 24.271357)"><g><path d="M 6.6875 0 L 1.203125 0 L 1.203125 -9.53125 L 6.6875 -9.53125 L 6.6875 -7.875 L 3.21875 -7.875 L 3.21875 -5.78125 L 6.453125 -5.78125 L 6.453125 -4.125 L 3.21875 -4.125 L 3.21875 -1.671875 L 6.6875 -1.671875 Z M 6.6875 0 "/></g></g></g><g fill="#222838" fill-opacity="1"><g transform="translate(159.824311, 24.271357)"><g/></g></g><g fill="#222838" fill-opacity="1"><g transform="translate(168.641257, 24.271357)"><g><path d="M 9.859375 -4.78125 C 9.859375 -3.195312 9.46875 -1.984375 8.6875 -1.140625 C 7.90625 -0.296875 6.78125 0.125 5.3125 0.125 C 3.851562 0.125 2.734375 -0.296875 1.953125 -1.140625 C 1.171875 -1.984375 0.78125 -3.203125 0.78125 -4.796875 C 0.78125 -6.378906 1.171875 -7.585938 1.953125 -8.421875 C 2.734375 -9.265625 3.859375 -9.6875 5.328125 -9.6875 C 6.796875 -9.6875 7.914062 -9.265625 8.6875 -8.421875 C 9.46875 -7.578125 9.859375 -6.363281 9.859375 -4.78125 Z M 2.890625 -4.78125 C 2.890625 -3.71875 3.09375 -2.914062 3.5 -2.375 C 3.90625 -1.832031 4.507812 -1.5625 5.3125 -1.5625 C 6.925781 -1.5625 7.734375 -2.632812 7.734375 -4.78125 C 7.734375 -6.925781 6.929688 -8 5.328125 -8 C 4.523438 -8 3.914062 -7.726562 3.5 -7.1875 C 3.09375 -6.644531 2.890625 -5.84375 2.890625 -4.78125 Z M 2.890625 -4.78125 "/></g></g></g><g fill="#222838" fill-opacity="1"><g transform="translate(184.488297, 24.271357)"><g><path d="M 8.90625 0 L 6.59375 0 L 4.390625 -3.609375 L 2.171875 0 L 0 0 L 3.15625 -4.921875 L 0.203125 -9.53125 L 2.4375 -9.53125 L 4.484375 -6.109375 L 6.5 -9.53125 L 8.6875 -9.53125 L 5.6875 -4.8125 Z M 8.90625 0 "/></g></g></g><g fill="#222838" fill-opacity="1"><g transform="translate(198.613664, 24.271357)"><g><path d="M 4.828125 -5.359375 L 8.609375 -5.359375 L 8.609375 -0.40625 C 7.992188 -0.207031 7.414062 -0.0703125 6.875 0 C 6.332031 0.0820312 5.78125 0.125 5.21875 0.125 C 3.769531 0.125 2.664062 -0.296875 1.90625 -1.140625 C 1.15625 -1.984375 0.78125 -3.195312 0.78125 -4.78125 C 0.78125 -6.320312 1.21875 -7.519531 2.09375 -8.375 C 2.976562 -9.238281 4.203125 -9.671875 5.765625 -9.671875 C 6.742188 -9.671875 7.6875 -9.476562 8.59375 -9.09375 L 7.921875 -7.46875 C 7.222656 -7.8125 6.5 -7.984375 5.75 -7.984375 C 4.875 -7.984375 4.171875 -7.691406 3.640625 -7.109375 C 3.117188 -6.523438 2.859375 -5.738281 2.859375 -4.75 C 2.859375 -3.707031 3.066406 -2.910156 3.484375 -2.359375 C 3.910156 -1.816406 4.53125 -1.546875 5.34375 -1.546875 C 5.757812 -1.546875 6.1875 -1.59375 6.625 -1.6875 L 6.625 -3.671875 L 4.828125 -3.671875 Z M 4.828125 -5.359375 "/></g></g></g><g fill="#222838" fill-opacity="1"><g transform="translate(213.632547, 24.271357)"><g><path d="M 3.21875 -5.296875 L 3.875 -5.296875 C 4.507812 -5.296875 4.976562 -5.398438 5.28125 -5.609375 C 5.59375 -5.828125 5.75 -6.164062 5.75 -6.625 C 5.75 -7.082031 5.59375 -7.40625 5.28125 -7.59375 C 4.96875 -7.78125 4.484375 -7.875 3.828125 -7.875 L 3.21875 -7.875 Z M 3.21875 -3.65625 L 3.21875 0 L 1.203125 0 L 1.203125 -9.53125 L 3.984375 -9.53125 C 5.273438 -9.53125 6.226562 -9.296875 6.84375 -8.828125 C 7.46875 -8.359375 7.78125 -7.644531 7.78125 -6.6875 C 7.78125 -6.125 7.625 -5.625 7.3125 -5.1875 C 7.007812 -4.75 6.578125 -4.40625 6.015625 -4.15625 L 8.8125 0 L 6.578125 0 L 4.296875 -3.65625 Z M 3.21875 -3.65625 "/></g></g></g><g fill="#222838" fill-opacity="1"><g transform="translate(227.797116, 24.271357)"><g><path d="M 6.6875 0 L 1.203125 0 L 1.203125 -9.53125 L 6.6875 -9.53125 L 6.6875 -7.875 L 3.21875 -7.875 L 3.21875 -5.78125 L 6.453125 -5.78125 L 6.453125 -4.125 L 3.21875 -4.125 L 3.21875 -1.671875 L 6.6875 -1.671875 Z M 6.6875 0 "/></g></g></g><g fill="#222838" fill-opacity="1"><g transform="translate(240.624779, 24.271357)"><g><path d="M 9.65625 0 L 7.09375 0 L 2.9375 -7.21875 L 2.890625 -7.21875 C 2.960938 -5.9375 3 -5.023438 3 -4.484375 L 3 0 L 1.203125 0 L 1.203125 -9.53125 L 3.75 -9.53125 L 7.890625 -2.390625 L 7.9375 -2.390625 C 7.875 -3.628906 7.84375 -4.503906 7.84375 -5.015625 L 7.84375 -9.53125 L 9.65625 -9.53125 Z M 9.65625 0 "/></g></g></g><g fill="#222838" fill-opacity="1"><g transform="translate(256.830573, 24.271357)"><g/></g></g><g fill="#222838" fill-opacity="1"><g transform="translate(265.647519, 24.271357)"><g><path d="M 8.875 0 L 6.578125 0 L 4.078125 -4.015625 L 3.21875 -3.40625 L 3.21875 0 L 1.203125 0 L 1.203125 -9.53125 L 3.21875 -9.53125 L 3.21875 -5.171875 L 4.015625 -6.296875 L 6.59375 -9.53125 L 8.84375 -9.53125 L 5.515625 -5.3125 Z M 8.875 0 "/></g></g></g><g fill="#222838" fill-opacity="1"><g transform="translate(279.864259, 24.271357)"><g><path d="M 9.65625 0 L 7.09375 0 L 2.9375 -7.21875 L 2.890625 -7.21875 C 2.960938 -5.9375 3 -5.023438 3 -4.484375 L 3 0 L 1.203125 0 L 1.203125 -9.53125 L 3.75 -9.53125 L 7.890625 -2.390625 L 7.9375 -2.390625 C 7.875 -3.628906 7.84375 -4.503906 7.84375 -5.015625 L 7.84375 -9.53125 L 9.65625 -9.53125 Z M 9.65625 0 "/></g></g></g><g fill="#222838" fill-opacity="1"><g transform="translate(296.070054, 24.271357)"><g><path d="M 8.96875 -9.53125 L 8.96875 -3.359375 C 8.96875 -2.660156 8.804688 -2.046875 8.484375 -1.515625 C 8.171875 -0.984375 7.71875 -0.578125 7.125 -0.296875 C 6.53125 -0.015625 5.828125 0.125 5.015625 0.125 C 3.785156 0.125 2.832031 -0.1875 2.15625 -0.8125 C 1.476562 -1.4375 1.140625 -2.296875 1.140625 -3.390625 L 1.140625 -9.53125 L 3.15625 -9.53125 L 3.15625 -3.703125 C 3.15625 -2.960938 3.300781 -2.421875 3.59375 -2.078125 C 3.882812 -1.734375 4.375 -1.5625 5.0625 -1.5625 C 5.71875 -1.5625 6.195312 -1.734375 6.5 -2.078125 C 6.800781 -2.429688 6.953125 -2.976562 6.953125 -3.71875 L 6.953125 -9.53125 Z M 8.96875 -9.53125 "/></g></g></g><g fill="#222838" fill-opacity="1"><g transform="translate(311.512846, 24.271357)"><g><path d="M 9.109375 -4.859375 C 9.109375 -3.285156 8.660156 -2.082031 7.765625 -1.25 C 6.878906 -0.414062 5.59375 0 3.90625 0 L 1.203125 0 L 1.203125 -9.53125 L 4.1875 -9.53125 C 5.75 -9.53125 6.957031 -9.117188 7.8125 -8.296875 C 8.675781 -7.484375 9.109375 -6.335938 9.109375 -4.859375 Z M 7.015625 -4.8125 C 7.015625 -6.851562 6.109375 -7.875 4.296875 -7.875 L 3.21875 -7.875 L 3.21875 -1.671875 L 4.09375 -1.671875 C 6.039062 -1.671875 7.015625 -2.71875 7.015625 -4.8125 Z M 7.015625 -4.8125 "/></g></g></g><g fill="#222838" fill-opacity="1"><g transform="translate(326.746927, 24.271357)"><g><path d="M 6.828125 -2.640625 C 6.828125 -1.785156 6.515625 -1.109375 5.890625 -0.609375 C 5.273438 -0.117188 4.414062 0.125 3.3125 0.125 C 2.289062 0.125 1.390625 -0.0625 0.609375 -0.4375 L 0.609375 -2.328125 C 1.253906 -2.035156 1.800781 -1.832031 2.25 -1.71875 C 2.695312 -1.601562 3.101562 -1.546875 3.46875 -1.546875 C 3.914062 -1.546875 4.253906 -1.628906 4.484375 -1.796875 C 4.722656 -1.960938 4.84375 -2.210938 4.84375 -2.546875 C 4.84375 -2.734375 4.789062 -2.898438 4.6875 -3.046875 C 4.582031 -3.191406 4.425781 -3.332031 4.21875 -3.46875 C 4.019531 -3.601562 3.613281 -3.816406 3 -4.109375 C 2.414062 -4.390625 1.976562 -4.65625 1.6875 -4.90625 C 1.394531 -5.15625 1.160156 -5.445312 0.984375 -5.78125 C 0.804688 -6.113281 0.71875 -6.503906 0.71875 -6.953125 C 0.71875 -7.796875 1.003906 -8.457031 1.578125 -8.9375 C 2.148438 -9.425781 2.941406 -9.671875 3.953125 -9.671875 C 4.453125 -9.671875 4.925781 -9.613281 5.375 -9.5 C 5.820312 -9.382812 6.289062 -9.21875 6.78125 -9 L 6.125 -7.4375 C 5.625 -7.644531 5.207031 -7.785156 4.875 -7.859375 C 4.539062 -7.941406 4.210938 -7.984375 3.890625 -7.984375 C 3.503906 -7.984375 3.207031 -7.894531 3 -7.71875 C 2.800781 -7.539062 2.703125 -7.3125 2.703125 -7.03125 C 2.703125 -6.851562 2.742188 -6.695312 2.828125 -6.5625 C 2.910156 -6.425781 3.039062 -6.296875 3.21875 -6.171875 C 3.394531 -6.046875 3.820312 -5.820312 4.5 -5.5 C 5.394531 -5.070312 6.003906 -4.644531 6.328125 -4.21875 C 6.660156 -3.789062 6.828125 -3.265625 6.828125 -2.640625 Z M 6.828125 -2.640625 "/></g></g></g><g fill="#222838" fill-opacity="1"><g transform="translate(339.450669, 24.271357)"><g><path d="M 6.6875 0 L 1.203125 0 L 1.203125 -9.53125 L 6.6875 -9.53125 L 6.6875 -7.875 L 3.21875 -7.875 L 3.21875 -5.78125 L 6.453125 -5.78125 L 6.453125 -4.125 L 3.21875 -4.125 L 3.21875 -1.671875 L 6.6875 -1.671875 Z M 6.6875 0 "/></g></g></g><g fill="#222838" fill-opacity="1"><g transform="translate(352.278356, 24.271357)"><g><path d="M 9.65625 0 L 7.09375 0 L 2.9375 -7.21875 L 2.890625 -7.21875 C 2.960938 -5.9375 3 -5.023438 3 -4.484375 L 3 0 L 1.203125 0 L 1.203125 -9.53125 L 3.75 -9.53125 L 7.890625 -2.390625 L 7.9375 -2.390625 C 7.875 -3.628906 7.84375 -4.503906 7.84375 -5.015625 L 7.84375 -9.53125 L 9.65625 -9.53125 Z M 9.65625 0 "/></g></g></g><g fill="#222838" fill-opacity="1"><g transform="translate(89.181606, 48.148027)"><g><path d="M 5.578125 0 L 1.09375 0 L 1.09375 -8.03125 L 5.578125 -8.03125 L 5.578125 -7.140625 L 2.109375 -7.140625 L 2.109375 -4.640625 L 5.375 -4.640625 L 5.375 -3.75 L 2.109375 -3.75 L 2.109375 -0.890625 L 5.578125 -0.890625 Z M 5.578125 0 "/></g></g></g><g fill="#222838" fill-opacity="1"><g transform="translate(99.932411, 48.148027)"><g><path d="M 2.109375 -4.171875 L 3.3125 -4.171875 C 3.957031 -4.171875 4.429688 -4.296875 4.734375 -4.546875 C 5.035156 -4.804688 5.1875 -5.191406 5.1875 -5.703125 C 5.1875 -6.203125 5.035156 -6.566406 4.734375 -6.796875 C 4.429688 -7.035156 3.9375 -7.15625 3.25 -7.15625 L 2.109375 -7.15625 Z M 2.109375 -3.3125 L 2.109375 0 L 1.09375 0 L 1.09375 -8.03125 L 3.3125 -8.03125 C 4.300781 -8.03125 5.035156 -7.835938 5.515625 -7.453125 C 5.992188 -7.078125 6.234375 -6.507812 6.234375 -5.75 C 6.234375 -4.6875 5.695312 -3.96875 4.625 -3.59375 L 6.828125 0 L 5.640625 0 L 3.703125 -3.3125 Z M 2.109375 -3.3125 "/></g></g></g><g fill="#222838" fill-opacity="1"><g transform="translate(111.424261, 48.148027)"><g><path d="M 7.234375 0 L 6.21875 0 L 6.21875 -3.75 L 2.109375 -3.75 L 2.109375 0 L 1.09375 0 L 1.09375 -8.03125 L 2.109375 -8.03125 L 2.109375 -4.640625 L 6.21875 -4.640625 L 6.21875 -8.03125 L 7.234375 -8.03125 Z M 7.234375 0 "/></g></g></g><g fill="#222838" fill-opacity="1"><g transform="translate(124.255482, 48.148027)"><g><path d="M 0 -8.03125 L 1.0625 -8.03125 L 2.875 -2.875 C 3.101562 -2.226562 3.269531 -1.644531 3.375 -1.125 C 3.46875 -1.582031 3.640625 -2.175781 3.890625 -2.90625 L 5.6875 -8.03125 L 6.75 -8.03125 L 3.890625 0 L 2.875 0 Z M 0 -8.03125 "/></g></g></g><g fill="#222838" fill-opacity="1"><g transform="translate(135.500317, 48.148027)"><g><path d="M 5.578125 0 L 1.09375 0 L 1.09375 -8.03125 L 5.578125 -8.03125 L 5.578125 -7.140625 L 2.109375 -7.140625 L 2.109375 -4.640625 L 5.375 -4.640625 L 5.375 -3.75 L 2.109375 -3.75 L 2.109375 -0.890625 L 5.578125 -0.890625 Z M 5.578125 0 "/></g></g></g><g fill="#222838" fill-opacity="1"><g transform="translate(146.251121, 48.148027)"><g><path d="M 2.109375 -4.171875 L 3.3125 -4.171875 C 3.957031 -4.171875 4.429688 -4.296875 4.734375 -4.546875 C 5.035156 -4.804688 5.1875 -5.191406 5.1875 -5.703125 C 5.1875 -6.203125 5.035156 -6.566406 4.734375 -6.796875 C 4.429688 -7.035156 3.9375 -7.15625 3.25 -7.15625 L 2.109375 -7.15625 Z M 2.109375 -3.3125 L 2.109375 0 L 1.09375 0 L 1.09375 -8.03125 L 3.3125 -8.03125 C 4.300781 -8.03125 5.035156 -7.835938 5.515625 -7.453125 C 5.992188 -7.078125 6.234375 -6.507812 6.234375 -5.75 C 6.234375 -4.6875 5.695312 -3.96875 4.625 -3.59375 L 6.828125 0 L 5.640625 0 L 3.703125 -3.3125 Z M 2.109375 -3.3125 "/></g></g></g><g fill="#222838" fill-opacity="1"><g transform="translate(157.742972, 48.148027)"><g><path d="M 0 -8.03125 L 1.0625 -8.03125 L 2.875 -2.875 C 3.101562 -2.226562 3.269531 -1.644531 3.375 -1.125 C 3.46875 -1.582031 3.640625 -2.175781 3.890625 -2.90625 L 5.6875 -8.03125 L 6.75 -8.03125 L 3.890625 0 L 2.875 0 Z M 0 -8.03125 "/></g></g></g><g fill="#222838" fill-opacity="1"><g transform="translate(168.987807, 48.148027)"><g><path d="M 5.640625 -2.140625 C 5.640625 -1.441406 5.382812 -0.890625 4.875 -0.484375 C 4.375 -0.0859375 3.675781 0.109375 2.78125 0.109375 C 1.820312 0.109375 1.085938 -0.015625 0.578125 -0.265625 L 0.578125 -1.234375 C 0.910156 -1.085938 1.28125 -0.972656 1.6875 -0.890625 C 2.09375 -0.804688 2.472656 -0.765625 2.828125 -0.765625 C 3.421875 -0.765625 3.867188 -0.878906 4.171875 -1.109375 C 4.484375 -1.335938 4.640625 -1.65625 4.640625 -2.0625 C 4.640625 -2.332031 4.582031 -2.550781 4.46875 -2.71875 C 4.363281 -2.894531 4.179688 -3.054688 3.921875 -3.203125 C 3.660156 -3.347656 3.269531 -3.519531 2.75 -3.71875 C 2 -3.988281 1.460938 -4.304688 1.140625 -4.671875 C 0.828125 -5.035156 0.671875 -5.507812 0.671875 -6.09375 C 0.671875 -6.71875 0.90625 -7.210938 1.375 -7.578125 C 1.851562 -7.953125 2.472656 -8.140625 3.234375 -8.140625 C 4.035156 -8.140625 4.773438 -7.992188 5.453125 -7.703125 L 5.140625 -6.828125 C 4.453125 -7.109375 3.8125 -7.25 3.21875 -7.25 C 2.738281 -7.25 2.363281 -7.144531 2.09375 -6.9375 C 1.832031 -6.738281 1.703125 -6.457031 1.703125 -6.09375 C 1.703125 -5.820312 1.753906 -5.597656 1.859375 -5.421875 C 1.960938 -5.253906 2.128906 -5.097656 2.359375 -4.953125 C 2.585938 -4.804688 2.953125 -4.644531 3.453125 -4.46875 C 4.046875 -4.25 4.488281 -4.035156 4.78125 -3.828125 C 5.082031 -3.617188 5.300781 -3.378906 5.4375 -3.109375 C 5.570312 -2.835938 5.640625 -2.515625 5.640625 -2.140625 Z M 5.640625 -2.140625 "/></g></g></g><g fill="#222838" fill-opacity="1"><g transform="translate(179.656273, 48.148027)"><g><path d="M 4.53125 -7.25 C 3.664062 -7.25 2.984375 -6.957031 2.484375 -6.375 C 1.992188 -5.800781 1.75 -5.015625 1.75 -4.015625 C 1.75 -2.984375 1.988281 -2.1875 2.46875 -1.625 C 2.945312 -1.0625 3.628906 -0.78125 4.515625 -0.78125 C 5.085938 -0.78125 5.734375 -0.882812 6.453125 -1.09375 L 6.453125 -0.21875 C 6.109375 -0.09375 5.78125 -0.0078125 5.46875 0.03125 C 5.15625 0.0820312 4.789062 0.109375 4.375 0.109375 C 3.195312 0.109375 2.285156 -0.25 1.640625 -0.96875 C 1.003906 -1.6875 0.6875 -2.707031 0.6875 -4.03125 C 0.6875 -4.851562 0.835938 -5.578125 1.140625 -6.203125 C 1.453125 -6.828125 1.898438 -7.304688 2.484375 -7.640625 C 3.066406 -7.972656 3.753906 -8.140625 4.546875 -8.140625 C 5.390625 -8.140625 6.128906 -7.984375 6.765625 -7.671875 L 6.359375 -6.8125 C 5.710938 -7.101562 5.101562 -7.25 4.53125 -7.25 Z M 4.53125 -7.25 "/></g></g></g><g fill="#222838" fill-opacity="1"><g transform="translate(191.148087, 48.148027)"><g><path d="M 8.109375 -4.03125 C 8.109375 -2.738281 7.78125 -1.722656 7.125 -0.984375 C 6.476562 -0.253906 5.570312 0.109375 4.40625 0.109375 C 3.21875 0.109375 2.300781 -0.25 1.65625 -0.96875 C 1.007812 -1.695312 0.6875 -2.71875 0.6875 -4.03125 C 0.6875 -5.34375 1.003906 -6.359375 1.640625 -7.078125 C 2.285156 -7.796875 3.207031 -8.15625 4.40625 -8.15625 C 5.570312 -8.15625 6.476562 -7.789062 7.125 -7.0625 C 7.78125 -6.332031 8.109375 -5.320312 8.109375 -4.03125 Z M 1.75 -4.03125 C 1.75 -2.96875 1.972656 -2.15625 2.421875 -1.59375 C 2.878906 -1.039062 3.539062 -0.765625 4.40625 -0.765625 C 5.257812 -0.765625 5.910156 -1.035156 6.359375 -1.578125 C 6.804688 -2.128906 7.03125 -2.945312 7.03125 -4.03125 C 7.03125 -5.101562 6.804688 -5.910156 6.359375 -6.453125 C 5.921875 -6.992188 5.269531 -7.265625 4.40625 -7.265625 C 3.539062 -7.265625 2.878906 -6.988281 2.421875 -6.4375 C 1.972656 -5.882812 1.75 -5.082031 1.75 -4.03125 Z M 1.75 -4.03125 "/></g></g></g><g fill="#222838" fill-opacity="1"><g transform="translate(204.314114, 48.148027)"><g><path d="M 6.125 0 L 5.15625 -2.484375 L 1.984375 -2.484375 L 1.015625 0 L 0 0 L 3.140625 -8.0625 L 4.046875 -8.0625 L 7.171875 0 Z M 4.859375 -3.390625 L 3.953125 -5.8125 L 3.578125 -7.015625 C 3.460938 -6.578125 3.347656 -6.175781 3.234375 -5.8125 L 2.3125 -3.390625 Z M 4.859375 -3.390625 "/></g></g></g><g fill="#222838" fill-opacity="1"><g transform="translate(215.888266, 48.148027)"><g><path d="M 4.53125 -7.25 C 3.664062 -7.25 2.984375 -6.957031 2.484375 -6.375 C 1.992188 -5.800781 1.75 -5.015625 1.75 -4.015625 C 1.75 -2.984375 1.988281 -2.1875 2.46875 -1.625 C 2.945312 -1.0625 3.628906 -0.78125 4.515625 -0.78125 C 5.085938 -0.78125 5.734375 -0.882812 6.453125 -1.09375 L 6.453125 -0.21875 C 6.109375 -0.09375 5.78125 -0.0078125 5.46875 0.03125 C 5.15625 0.0820312 4.789062 0.109375 4.375 0.109375 C 3.195312 0.109375 2.285156 -0.25 1.640625 -0.96875 C 1.003906 -1.6875 0.6875 -2.707031 0.6875 -4.03125 C 0.6875 -4.851562 0.835938 -5.578125 1.140625 -6.203125 C 1.453125 -6.828125 1.898438 -7.304688 2.484375 -7.640625 C 3.066406 -7.972656 3.753906 -8.140625 4.546875 -8.140625 C 5.390625 -8.140625 6.128906 -7.984375 6.765625 -7.671875 L 6.359375 -6.8125 C 5.710938 -7.101562 5.101562 -7.25 4.53125 -7.25 Z M 4.53125 -7.25 "/></g></g></g><g fill="#222838" fill-opacity="1"><g transform="translate(227.489901, 48.148027)"><g><path d="M 7.234375 0 L 6.21875 0 L 6.21875 -3.75 L 2.109375 -3.75 L 2.109375 0 L 1.09375 0 L 1.09375 -8.03125 L 2.109375 -8.03125 L 2.109375 -4.640625 L 6.21875 -4.640625 L 6.21875 -8.03125 L 7.234375 -8.03125 Z M 7.234375 0 "/></g></g></g><g fill="#222838" fill-opacity="1"><g transform="translate(240.321122, 48.148027)"><g/></g></g><g fill="#222838" fill-opacity="1"><g transform="translate(247.739967, 48.148027)"><g><path d="M 2.3125 -6.40625 C 2.3125 -6.164062 2.375 -5.925781 2.5 -5.6875 C 2.632812 -5.457031 2.847656 -5.195312 3.140625 -4.90625 C 3.597656 -5.15625 3.921875 -5.394531 4.109375 -5.625 C 4.296875 -5.863281 4.390625 -6.128906 4.390625 -6.421875 C 4.390625 -6.703125 4.296875 -6.925781 4.109375 -7.09375 C 3.921875 -7.257812 3.679688 -7.34375 3.390625 -7.34375 C 3.054688 -7.34375 2.789062 -7.253906 2.59375 -7.078125 C 2.40625 -6.910156 2.3125 -6.6875 2.3125 -6.40625 Z M 3.15625 -0.765625 C 3.988281 -0.765625 4.691406 -1.03125 5.265625 -1.5625 L 2.921875 -3.828125 C 2.421875 -3.523438 2.078125 -3.25 1.890625 -3 C 1.710938 -2.75 1.625 -2.457031 1.625 -2.125 C 1.625 -1.707031 1.765625 -1.375 2.046875 -1.125 C 2.335938 -0.882812 2.707031 -0.765625 3.15625 -0.765625 Z M 0.59375 -2.09375 C 0.59375 -2.570312 0.710938 -2.988281 0.953125 -3.34375 C 1.203125 -3.707031 1.660156 -4.078125 2.328125 -4.453125 C 2.046875 -4.773438 1.84375 -5.023438 1.71875 -5.203125 C 1.601562 -5.390625 1.507812 -5.582031 1.4375 -5.78125 C 1.375 -5.976562 1.34375 -6.1875 1.34375 -6.40625 C 1.34375 -6.945312 1.523438 -7.375 1.890625 -7.6875 C 2.253906 -8 2.765625 -8.15625 3.421875 -8.15625 C 4.023438 -8.15625 4.5 -8 4.84375 -7.6875 C 5.1875 -7.382812 5.359375 -6.960938 5.359375 -6.421875 C 5.359375 -6.023438 5.234375 -5.660156 4.984375 -5.328125 C 4.734375 -4.992188 4.320312 -4.65625 3.75 -4.3125 L 5.921875 -2.234375 C 6.265625 -2.628906 6.53125 -3.222656 6.71875 -4.015625 L 7.71875 -4.015625 C 7.46875 -2.972656 7.082031 -2.164062 6.5625 -1.59375 L 8.21875 0 L 6.875 0 L 5.890625 -0.9375 C 5.472656 -0.570312 5.039062 -0.304688 4.59375 -0.140625 C 4.15625 0.0234375 3.664062 0.109375 3.125 0.109375 C 2.332031 0.109375 1.710938 -0.0820312 1.265625 -0.46875 C 0.816406 -0.851562 0.59375 -1.394531 0.59375 -2.09375 Z M 0.59375 -2.09375 "/></g></g></g><g fill="#222838" fill-opacity="1"><g transform="translate(260.466893, 48.148027)"><g/></g></g><g fill="#222838" fill-opacity="1"><g transform="translate(267.885738, 48.148027)"><g><path d="M 6.96875 0 L 5.765625 0 L 2.921875 -3.828125 L 2.109375 -3.109375 L 2.109375 0 L 1.09375 0 L 1.09375 -8.03125 L 2.109375 -8.03125 L 2.109375 -4.078125 L 2.796875 -4.828125 L 5.65625 -8.03125 L 6.84375 -8.03125 L 3.65625 -4.53125 Z M 6.96875 0 "/></g></g></g><g fill="#222838" fill-opacity="1"><g transform="translate(279.234832, 48.148027)"><g><path d="M 8.109375 -4.03125 C 8.109375 -2.738281 7.78125 -1.722656 7.125 -0.984375 C 6.476562 -0.253906 5.570312 0.109375 4.40625 0.109375 C 3.21875 0.109375 2.300781 -0.25 1.65625 -0.96875 C 1.007812 -1.695312 0.6875 -2.71875 0.6875 -4.03125 C 0.6875 -5.34375 1.003906 -6.359375 1.640625 -7.078125 C 2.285156 -7.796875 3.207031 -8.15625 4.40625 -8.15625 C 5.570312 -8.15625 6.476562 -7.789062 7.125 -7.0625 C 7.78125 -6.332031 8.109375 -5.320312 8.109375 -4.03125 Z M 1.75 -4.03125 C 1.75 -2.96875 1.972656 -2.15625 2.421875 -1.59375 C 2.878906 -1.039062 3.539062 -0.765625 4.40625 -0.765625 C 5.257812 -0.765625 5.910156 -1.035156 6.359375 -1.578125 C 6.804688 -2.128906 7.03125 -2.945312 7.03125 -4.03125 C 7.03125 -5.101562 6.804688 -5.910156 6.359375 -6.453125 C 5.921875 -6.992188 5.269531 -7.265625 4.40625 -7.265625 C 3.539062 -7.265625 2.878906 -6.988281 2.421875 -6.4375 C 1.972656 -5.882812 1.75 -5.082031 1.75 -4.03125 Z M 1.75 -4.03125 "/></g></g></g><g fill="#222838" fill-opacity="1"><g transform="translate(292.51068, 48.148027)"><g><path d="M 7.453125 0 L 6.28125 0 L 1.984375 -6.671875 L 1.9375 -6.671875 L 1.96875 -6.21875 C 2.007812 -5.550781 2.03125 -4.972656 2.03125 -4.484375 L 2.03125 0 L 1.09375 0 L 1.09375 -8.03125 L 2.265625 -8.03125 L 2.515625 -7.640625 L 5.140625 -3.5625 L 6.546875 -1.390625 L 6.59375 -1.390625 C 6.582031 -1.472656 6.566406 -1.785156 6.546875 -2.328125 C 6.523438 -2.867188 6.515625 -3.257812 6.515625 -3.5 L 6.515625 -8.03125 L 7.453125 -8.03125 Z M 7.453125 0 "/></g></g></g><g fill="#222838" fill-opacity="1"><g transform="translate(305.550479, 48.148027)"><g><path d="M 5.640625 -2.140625 C 5.640625 -1.441406 5.382812 -0.890625 4.875 -0.484375 C 4.375 -0.0859375 3.675781 0.109375 2.78125 0.109375 C 1.820312 0.109375 1.085938 -0.015625 0.578125 -0.265625 L 0.578125 -1.234375 C 0.910156 -1.085938 1.28125 -0.972656 1.6875 -0.890625 C 2.09375 -0.804688 2.472656 -0.765625 2.828125 -0.765625 C 3.421875 -0.765625 3.867188 -0.878906 4.171875 -1.109375 C 4.484375 -1.335938 4.640625 -1.65625 4.640625 -2.0625 C 4.640625 -2.332031 4.582031 -2.550781 4.46875 -2.71875 C 4.363281 -2.894531 4.179688 -3.054688 3.921875 -3.203125 C 3.660156 -3.347656 3.269531 -3.519531 2.75 -3.71875 C 2 -3.988281 1.460938 -4.304688 1.140625 -4.671875 C 0.828125 -5.035156 0.671875 -5.507812 0.671875 -6.09375 C 0.671875 -6.71875 0.90625 -7.210938 1.375 -7.578125 C 1.851562 -7.953125 2.472656 -8.140625 3.234375 -8.140625 C 4.035156 -8.140625 4.773438 -7.992188 5.453125 -7.703125 L 5.140625 -6.828125 C 4.453125 -7.109375 3.8125 -7.25 3.21875 -7.25 C 2.738281 -7.25 2.363281 -7.144531 2.09375 -6.9375 C 1.832031 -6.738281 1.703125 -6.457031 1.703125 -6.09375 C 1.703125 -5.820312 1.753906 -5.597656 1.859375 -5.421875 C 1.960938 -5.253906 2.128906 -5.097656 2.359375 -4.953125 C 2.585938 -4.804688 2.953125 -4.644531 3.453125 -4.46875 C 4.046875 -4.25 4.488281 -4.035156 4.78125 -3.828125 C 5.082031 -3.617188 5.300781 -3.378906 5.4375 -3.109375 C 5.570312 -2.835938 5.640625 -2.515625 5.640625 -2.140625 Z M 5.640625 -2.140625 "/></g></g></g><g fill="#222838" fill-opacity="1"><g transform="translate(316.218958, 48.148027)"><g><path d="M 7.203125 -8.03125 L 7.203125 -2.828125 C 7.203125 -1.921875 6.925781 -1.203125 6.375 -0.671875 C 5.820312 -0.148438 5.054688 0.109375 4.078125 0.109375 C 3.097656 0.109375 2.34375 -0.15625 1.8125 -0.6875 C 1.28125 -1.21875 1.015625 -1.941406 1.015625 -2.859375 L 1.015625 -8.03125 L 2.03125 -8.03125 L 2.03125 -2.828125 C 2.03125 -2.171875 2.203125 -1.660156 2.546875 -1.296875 C 2.898438 -0.941406 3.425781 -0.765625 4.125 -0.765625 C 4.789062 -0.765625 5.300781 -0.941406 5.65625 -1.296875 C 6.019531 -1.648438 6.203125 -2.160156 6.203125 -2.828125 L 6.203125 -8.03125 Z M 7.203125 -8.03125 "/></g></g></g><g fill="#222838" fill-opacity="1"><g transform="translate(328.934917, 48.148027)"><g><path d="M 1.09375 0 L 1.09375 -8.03125 L 2.109375 -8.03125 L 2.109375 -0.90625 L 5.609375 -0.90625 L 5.609375 0 Z M 1.09375 0 "/></g></g></g><g fill="#222838" fill-opacity="1"><g transform="translate(339.323421, 48.148027)"><g><path d="M 5.578125 0 L 1.09375 0 L 1.09375 -8.03125 L 5.578125 -8.03125 L 5.578125 -7.140625 L 2.109375 -7.140625 L 2.109375 -4.640625 L 5.375 -4.640625 L 5.375 -3.75 L 2.109375 -3.75 L 2.109375 -0.890625 L 5.578125 -0.890625 Z M 5.578125 0 "/></g></g></g><g fill="#222838" fill-opacity="1"><g transform="translate(350.074214, 48.148027)"><g><path d="M 7.453125 0 L 6.28125 0 L 1.984375 -6.671875 L 1.9375 -6.671875 L 1.96875 -6.21875 C 2.007812 -5.550781 2.03125 -4.972656 2.03125 -4.484375 L 2.03125 0 L 1.09375 0 L 1.09375 -8.03125 L 2.265625 -8.03125 L 2.515625 -7.640625 L 5.140625 -3.5625 L 6.546875 -1.390625 L 6.59375 -1.390625 C 6.582031 -1.472656 6.566406 -1.785156 6.546875 -2.328125 C 6.523438 -2.867188 6.515625 -3.257812 6.515625 -3.5 L 6.515625 -8.03125 L 7.453125 -8.03125 Z M 7.453125 0 "/></g></g></g><g fill="#222838" fill-opacity="1"><g transform="translate(363.114037, 48.148027)"><g><path d="M 3.640625 0 L 2.625 0 L 2.625 -7.140625 L 0.109375 -7.140625 L 0.109375 -8.03125 L 6.125 -8.03125 L 6.125 -7.140625 L 3.640625 -7.140625 Z M 3.640625 0 "/></g></g></g><g fill="#222838" fill-opacity="1"><g transform="translate(373.873602, 48.148027)"><g/></g></g><path fill="#222838" d="M 38.113281 50.925781 C 35.109375 25.761719 41.113281 17.902344 63.414062 9.25 C 65.660156 31.5 63.011719 41.390625 38.113281 50.925781 " fill-opacity="1" fill-rule="nonzero"/><path fill="#222838" d="M 38.070312 50.925781 C 41.070312 25.761719 35.066406 17.902344 12.765625 9.25 C 10.519531 31.5 13.167969 41.390625 38.070312 50.925781 " fill-opacity="1" fill-rule="nonzero"/><g clip-path="url(#58a584c60a)"><path fill="#222838" d="M 38.125 50.445312 C 38.125 50.445312 53.125 42.925781 62.660156 59.820312 C 40.527344 64.589844 38.125 50.445312 38.125 50.445312 " fill-opacity="1" fill-rule="nonzero"/></g><g clip-path="url(#9f918a3994)"><path fill="#222838" d="M 38.070312 50.445312 C 38.070312 50.445312 23.070312 42.925781 13.535156 59.820312 C 35.667969 64.589844 38.070312 50.445312 38.070312 50.445312 " fill-opacity="1" fill-rule="nonzero"/></g><g clip-path="url(#93d58532a2)"><path fill="#222838" d="M 38.554688 50.515625 C 58.480469 51.523438 70.136719 43.527344 75.164062 25.394531 C 75.046875 25.394531 74.933594 25.394531 74.816406 25.394531 C 61.71875 25.394531 52.921875 27.289062 47.167969 31.34375 C 41.550781 35.304688 38.804688 41.402344 38.554688 50.515625 Z M 41.835938 51.464844 C 40.617188 51.464844 39.371094 51.429688 38.089844 51.355469 C 37.859375 51.34375 37.675781 51.148438 37.683594 50.917969 C 37.867188 41.277344 40.722656 34.832031 46.671875 30.640625 C 52.710938 26.386719 61.945312 24.445312 75.730469 24.535156 C 75.863281 24.535156 75.988281 24.597656 76.070312 24.703125 C 76.152344 24.8125 76.179688 24.949219 76.144531 25.078125 C 71.351562 43.007812 60.40625 51.464844 41.835938 51.464844 " fill-opacity="1" fill-rule="nonzero"/></g><path fill="#222838" d="M 1.015625 25.394531 C 6.046875 43.527344 17.699219 51.523438 37.628906 50.515625 C 37.375 41.402344 34.632812 35.304688 29.011719 31.34375 C 23.210938 27.253906 14.3125 25.359375 1.015625 25.394531 Z M 34.347656 51.464844 C 15.773438 51.464844 4.828125 43.007812 0.0390625 25.078125 C 0.00390625 24.949219 0.03125 24.8125 0.113281 24.703125 C 0.191406 24.597656 0.316406 24.535156 0.453125 24.535156 C 14.234375 24.445312 23.472656 26.386719 29.507812 30.640625 C 35.457031 34.832031 38.3125 41.277344 38.5 50.917969 C 38.503906 51.148438 38.324219 51.34375 38.09375 51.355469 C 36.8125 51.429688 35.5625 51.464844 34.347656 51.464844 " fill-opacity="1" fill-rule="nonzero"/><path fill="#222838" d="M 38.128906 1.253906 C 36.992188 2.597656 33.019531 7.433594 29.480469 13.597656 C 25.660156 20.246094 21.566406 29.835938 23.757812 37.785156 C 25.378906 43.652344 30.210938 47.921875 38.121094 50.476562 C 46.378906 48.152344 51.425781 44.027344 53.121094 38.21875 C 55.421875 30.332031 51.148438 20.617188 47.160156 13.855469 C 43.453125 7.570312 39.300781 2.609375 38.128906 1.253906 Z M 38.113281 51.355469 C 38.066406 51.355469 38.023438 51.347656 37.980469 51.335938 C 29.703125 48.691406 24.636719 44.210938 22.929688 38.015625 C 20.65625 29.773438 24.835938 19.945312 28.738281 13.15625 C 32.949219 5.835938 37.753906 0.363281 37.804688 0.3125 C 37.882812 0.21875 38 0.164062 38.125 0.164062 C 38.246094 0.164062 38.363281 0.214844 38.445312 0.308594 C 38.496094 0.363281 43.511719 5.972656 47.902344 13.417969 C 51.976562 20.324219 56.335938 30.277344 53.949219 38.457031 C 52.15625 44.605469 46.867188 48.9375 38.226562 51.339844 C 38.191406 51.351562 38.152344 51.355469 38.113281 51.355469 " fill-opacity="1" fill-rule="nonzero"/><path fill="#d8d2d0" d="M 38.113281 51.355469 C 38.109375 51.355469 38.105469 51.355469 38.105469 51.355469 C 37.867188 51.351562 37.679688 51.15625 37.683594 50.917969 C 37.683594 50.738281 37.6875 50.5625 37.699219 50.386719 C 37.753906 48.5 37.917969 46.707031 38.191406 45.070312 C 39.695312 35.996094 44.519531 30.351562 53.378906 27.308594 C 56.339844 26.285156 59.714844 25.566406 63.6875 25.109375 C 63.925781 25.082031 64.140625 25.25 64.167969 25.488281 C 64.195312 25.722656 64.023438 25.9375 63.789062 25.964844 C 59.875 26.414062 56.5625 27.121094 53.660156 28.125 C 45.132812 31.054688 40.488281 36.484375 39.042969 45.210938 C 38.773438 46.808594 38.613281 48.5625 38.558594 50.421875 C 38.550781 50.597656 38.546875 50.765625 38.542969 50.933594 C 38.539062 51.167969 38.347656 51.355469 38.113281 51.355469 " fill-opacity="1" fill-rule="nonzero"/><path fill="#d8d2d0" d="M 38.070312 51.339844 C 37.832031 51.339844 37.636719 51.164062 37.636719 50.925781 C 37.636719 50.753906 37.632812 50.59375 37.625 50.433594 C 37.570312 48.5625 37.40625 46.808594 37.140625 45.214844 C 35.722656 36.667969 31.261719 31.300781 23.09375 28.320312 C 20.0625 27.214844 16.5625 26.445312 12.394531 25.964844 C 12.15625 25.9375 11.988281 25.722656 12.015625 25.488281 C 12.042969 25.25 12.257812 25.082031 12.492188 25.109375 C 16.730469 25.597656 20.292969 26.382812 23.386719 27.511719 C 31.878906 30.609375 36.519531 36.1875 37.988281 45.070312 C 38.265625 46.707031 38.429688 48.5 38.484375 50.398438 C 38.492188 50.554688 38.496094 50.722656 38.5 50.894531 C 38.5 51.132812 38.308594 51.339844 38.070312 51.339844 " fill-opacity="1" fill-rule="nonzero"/><path fill="#d8d2d0" d="M 38.5 50.910156 Z M 38.113281 51.355469 C 38.078125 51.355469 38.042969 51.351562 38.007812 51.34375 C 37.992188 51.339844 37.972656 51.332031 37.957031 51.328125 C 37.941406 51.324219 37.921875 51.316406 37.90625 51.308594 C 37.839844 51.289062 37.773438 51.269531 37.707031 51.246094 C 35.851562 50.636719 34.160156 49.9375 32.664062 49.164062 C 24.175781 44.769531 20.859375 37.589844 22.816406 27.832031 C 23.53125 24.265625 24.957031 20.375 27.054688 16.265625 C 27.164062 16.050781 27.421875 15.96875 27.632812 16.074219 C 27.847656 16.183594 27.929688 16.445312 27.824219 16.65625 C 25.761719 20.695312 24.359375 24.515625 23.660156 28 C 21.789062 37.339844 24.953125 44.203125 33.058594 48.398438 C 34.515625 49.152344 36.164062 49.835938 37.964844 50.425781 C 38.019531 50.441406 38.070312 50.457031 38.121094 50.472656 C 41.5 49.523438 44.371094 48.261719 46.648438 46.726562 C 52.847656 42.550781 55.015625 36.1875 53.097656 27.8125 C 52.300781 24.328125 50.796875 20.515625 48.636719 16.480469 C 48.523438 16.269531 48.601562 16.007812 48.8125 15.894531 C 49.023438 15.785156 49.28125 15.863281 49.394531 16.074219 C 51.59375 20.175781 53.121094 24.0625 53.9375 27.621094 C 55.945312 36.378906 53.652344 43.046875 47.128906 47.441406 C 44.746094 49.046875 41.75 50.359375 38.230469 51.339844 C 38.191406 51.351562 38.152344 51.355469 38.113281 51.355469 " fill-opacity="1" fill-rule="nonzero"/></g></g></svg>