<svg xmlns="http://www.w3.org/2000/svg" xmlns:xlink="http://www.w3.org/1999/xlink" width="2000" zoomAndPan="magnify" viewBox="0 0 1500 284.999983" height="380" preserveAspectRatio="xMidYMid meet" version="1.0"><defs><g/><clipPath id="dc7572a151"><path d="M 152 195 L 251 195 L 251 243.398438 L 152 243.398438 Z M 152 195 " clip-rule="nonzero"/></clipPath><clipPath id="000602bdd1"><path d="M 54 195 L 153 195 L 153 243.398438 L 54 243.398438 Z M 54 195 " clip-rule="nonzero"/></clipPath><clipPath id="220502f6df"><path d="M 89 0.28125 L 219 0.28125 L 219 206 L 89 206 Z M 89 0.28125 " clip-rule="nonzero"/></clipPath><clipPath id="05003a9e0c"><rect x="0" width="1500" y="0" height="244"/></clipPath></defs><g transform="matrix(1, 0, 0, 1, 0, 17)"><g clip-path="url(#05003a9e0c)"><g fill="#222838" fill-opacity="1"><g transform="translate(393.387073, 97.064722)"><g><path d="M 0.8125 11.21875 C -1.019531 11.21875 -2.613281 11.03125 -3.96875 10.65625 L -3.96875 3.921875 C -2.570312 4.265625 -1.300781 4.4375 -0.15625 4.4375 C 1.613281 4.4375 2.878906 3.882812 3.640625 2.78125 C 4.410156 1.675781 4.796875 -0.0507812 4.796875 -2.40625 L 4.796875 -38.15625 L 12.890625 -38.15625 L 12.890625 -2.453125 C 12.890625 2.003906 11.867188 5.394531 9.828125 7.71875 C 7.796875 10.050781 4.789062 11.21875 0.8125 11.21875 Z M 0.8125 11.21875 "/></g></g></g><g fill="#222838" fill-opacity="1"><g transform="translate(432.463406, 97.064722)"><g><path d="M 35.859375 -38.15625 L 35.859375 -13.46875 C 35.859375 -10.644531 35.226562 -8.171875 33.96875 -6.046875 C 32.707031 -3.929688 30.882812 -2.304688 28.5 -1.171875 C 26.113281 -0.046875 23.296875 0.515625 20.046875 0.515625 C 15.140625 0.515625 11.328125 -0.738281 8.609375 -3.25 C 5.898438 -5.757812 4.546875 -9.203125 4.546875 -13.578125 L 4.546875 -38.15625 L 12.609375 -38.15625 L 12.609375 -14.796875 C 12.609375 -11.859375 13.195312 -9.703125 14.375 -8.328125 C 15.5625 -6.953125 17.519531 -6.265625 20.25 -6.265625 C 22.894531 -6.265625 24.8125 -6.953125 26 -8.328125 C 27.195312 -9.710938 27.796875 -11.882812 27.796875 -14.84375 L 27.796875 -38.15625 Z M 35.859375 -38.15625 "/></g></g></g><g fill="#222838" fill-opacity="1"><g transform="translate(494.234527, 97.064722)"><g><path d="M 4.796875 0 L 4.796875 -38.15625 L 12.890625 -38.15625 L 12.890625 -6.6875 L 28.375 -6.6875 L 28.375 0 Z M 4.796875 0 "/></g></g></g><g fill="#222838" fill-opacity="1"><g transform="translate(545.806036, 97.064722)"><g><path d="M 19.078125 0 L 1.71875 0 L 1.71875 -4.59375 L 6.375 -6.734375 L 6.375 -31.421875 L 1.71875 -33.5625 L 1.71875 -38.15625 L 19.078125 -38.15625 L 19.078125 -33.5625 L 14.4375 -31.421875 L 14.4375 -6.734375 L 19.078125 -4.59375 Z M 19.078125 0 "/></g></g></g><g fill="#222838" fill-opacity="1"><g transform="translate(587.986599, 97.064722)"><g><path d="M 26.78125 0 L 4.796875 0 L 4.796875 -38.15625 L 26.78125 -38.15625 L 26.78125 -31.53125 L 12.890625 -31.53125 L 12.890625 -23.15625 L 25.8125 -23.15625 L 25.8125 -16.515625 L 12.890625 -16.515625 L 12.890625 -6.6875 L 26.78125 -6.6875 Z M 26.78125 0 "/></g></g></g><g fill="#222838" fill-opacity="1"><g transform="translate(639.297249, 97.064722)"><g/></g></g><g fill="#222838" fill-opacity="1"><g transform="translate(674.565032, 97.064722)"><g><path d="M 39.4375 -19.125 C 39.4375 -12.8125 37.867188 -7.957031 34.734375 -4.5625 C 31.609375 -1.175781 27.117188 0.515625 21.265625 0.515625 C 15.421875 0.515625 10.929688 -1.175781 7.796875 -4.5625 C 4.671875 -7.957031 3.109375 -12.832031 3.109375 -19.1875 C 3.109375 -25.53125 4.675781 -30.378906 7.8125 -33.734375 C 10.957031 -37.085938 15.460938 -38.765625 21.328125 -38.765625 C 27.191406 -38.765625 31.675781 -37.070312 34.78125 -33.6875 C 37.882812 -30.3125 39.4375 -25.457031 39.4375 -19.125 Z M 11.59375 -19.125 C 11.59375 -14.863281 12.398438 -11.65625 14.015625 -9.5 C 15.628906 -7.34375 18.046875 -6.265625 21.265625 -6.265625 C 27.722656 -6.265625 30.953125 -10.550781 30.953125 -19.125 C 30.953125 -27.726562 27.742188 -32.03125 21.328125 -32.03125 C 18.109375 -32.03125 15.679688 -30.945312 14.046875 -28.78125 C 12.410156 -26.613281 11.59375 -23.394531 11.59375 -19.125 Z M 11.59375 -19.125 "/></g></g></g><g fill="#222838" fill-opacity="1"><g transform="translate(737.953192, 97.064722)"><g><path d="M 35.65625 0 L 26.40625 0 L 17.546875 -14.4375 L 8.671875 0 L 0 0 L 12.65625 -19.671875 L 0.8125 -38.15625 L 9.734375 -38.15625 L 17.953125 -24.4375 L 26.015625 -38.15625 L 34.734375 -38.15625 L 22.765625 -19.234375 Z M 35.65625 0 "/></g></g></g><g fill="#222838" fill-opacity="1"><g transform="translate(794.454658, 97.064722)"><g><path d="M 19.28125 -21.421875 L 34.421875 -21.421875 L 34.421875 -1.640625 C 31.972656 -0.835938 29.664062 -0.28125 27.5 0.03125 C 25.332031 0.351562 23.117188 0.515625 20.859375 0.515625 C 15.097656 0.515625 10.695312 -1.171875 7.65625 -4.546875 C 4.625 -7.929688 3.109375 -12.789062 3.109375 -19.125 C 3.109375 -25.289062 4.867188 -30.09375 8.390625 -33.53125 C 11.910156 -36.976562 16.796875 -38.703125 23.046875 -38.703125 C 26.960938 -38.703125 30.738281 -37.921875 34.375 -36.359375 L 31.6875 -29.890625 C 28.90625 -31.273438 26.007812 -31.96875 23 -31.96875 C 19.5 -31.96875 16.695312 -30.789062 14.59375 -28.4375 C 12.488281 -26.09375 11.4375 -22.9375 11.4375 -18.96875 C 11.4375 -14.832031 12.28125 -11.671875 13.96875 -9.484375 C 15.664062 -7.304688 18.132812 -6.21875 21.375 -6.21875 C 23.0625 -6.21875 24.773438 -6.390625 26.515625 -6.734375 L 26.515625 -14.6875 L 19.28125 -14.6875 Z M 19.28125 -21.421875 "/></g></g></g><g fill="#222838" fill-opacity="1"><g transform="translate(854.530191, 97.064722)"><g><path d="M 12.890625 -21.21875 L 15.5 -21.21875 C 18.0625 -21.21875 19.953125 -21.644531 21.171875 -22.5 C 22.390625 -23.351562 23 -24.691406 23 -26.515625 C 23 -28.328125 22.375 -29.613281 21.125 -30.375 C 19.882812 -31.144531 17.957031 -31.53125 15.34375 -31.53125 L 12.890625 -31.53125 Z M 12.890625 -14.640625 L 12.890625 0 L 4.796875 0 L 4.796875 -38.15625 L 15.921875 -38.15625 C 21.109375 -38.15625 24.941406 -37.210938 27.421875 -35.328125 C 29.910156 -33.441406 31.15625 -30.578125 31.15625 -26.734375 C 31.15625 -24.484375 30.535156 -22.484375 29.296875 -20.734375 C 28.066406 -18.984375 26.320312 -17.613281 24.0625 -16.625 L 35.28125 0 L 26.3125 0 L 17.203125 -14.640625 Z M 12.890625 -14.640625 "/></g></g></g><g fill="#222838" fill-opacity="1"><g transform="translate(911.188464, 97.064722)"><g><path d="M 26.78125 0 L 4.796875 0 L 4.796875 -38.15625 L 26.78125 -38.15625 L 26.78125 -31.53125 L 12.890625 -31.53125 L 12.890625 -23.15625 L 25.8125 -23.15625 L 25.8125 -16.515625 L 12.890625 -16.515625 L 12.890625 -6.6875 L 26.78125 -6.6875 Z M 26.78125 0 "/></g></g></g><g fill="#222838" fill-opacity="1"><g transform="translate(962.499113, 97.064722)"><g><path d="M 38.65625 0 L 28.375 0 L 11.765625 -28.859375 L 11.53125 -28.859375 C 11.863281 -23.765625 12.03125 -20.128906 12.03125 -17.953125 L 12.03125 0 L 4.796875 0 L 4.796875 -38.15625 L 15 -38.15625 L 31.578125 -9.578125 L 31.765625 -9.578125 C 31.503906 -14.535156 31.375 -18.039062 31.375 -20.09375 L 31.375 -38.15625 L 38.65625 -38.15625 Z M 38.65625 0 "/></g></g></g><g fill="#222838" fill-opacity="1"><g transform="translate(1027.32229, 97.064722)"><g/></g></g><g fill="#222838" fill-opacity="1"><g transform="translate(1062.590073, 97.064722)"><g><path d="M 35.5 0 L 26.3125 0 L 16.3125 -16.078125 L 12.890625 -13.625 L 12.890625 0 L 4.796875 0 L 4.796875 -38.15625 L 12.890625 -38.15625 L 12.890625 -20.703125 L 16.078125 -25.1875 L 26.40625 -38.15625 L 35.390625 -38.15625 L 22.078125 -21.265625 Z M 35.5 0 "/></g></g></g><g fill="#222838" fill-opacity="1"><g transform="translate(1119.457034, 97.064722)"><g><path d="M 38.65625 0 L 28.375 0 L 11.765625 -28.859375 L 11.53125 -28.859375 C 11.863281 -23.765625 12.03125 -20.128906 12.03125 -17.953125 L 12.03125 0 L 4.796875 0 L 4.796875 -38.15625 L 15 -38.15625 L 31.578125 -9.578125 L 31.765625 -9.578125 C 31.503906 -14.535156 31.375 -18.039062 31.375 -20.09375 L 31.375 -38.15625 L 38.65625 -38.15625 Z M 38.65625 0 "/></g></g></g><g fill="#222838" fill-opacity="1"><g transform="translate(1184.28021, 97.064722)"><g><path d="M 35.859375 -38.15625 L 35.859375 -13.46875 C 35.859375 -10.644531 35.226562 -8.171875 33.96875 -6.046875 C 32.707031 -3.929688 30.882812 -2.304688 28.5 -1.171875 C 26.113281 -0.046875 23.296875 0.515625 20.046875 0.515625 C 15.140625 0.515625 11.328125 -0.738281 8.609375 -3.25 C 5.898438 -5.757812 4.546875 -9.203125 4.546875 -13.578125 L 4.546875 -38.15625 L 12.609375 -38.15625 L 12.609375 -14.796875 C 12.609375 -11.859375 13.195312 -9.703125 14.375 -8.328125 C 15.5625 -6.953125 17.519531 -6.265625 20.25 -6.265625 C 22.894531 -6.265625 24.8125 -6.953125 26 -8.328125 C 27.195312 -9.710938 27.796875 -11.882812 27.796875 -14.84375 L 27.796875 -38.15625 Z M 35.859375 -38.15625 "/></g></g></g><g fill="#222838" fill-opacity="1"><g transform="translate(1246.051379, 97.064722)"><g><path d="M 36.46875 -19.4375 C 36.46875 -13.15625 34.675781 -8.34375 31.09375 -5 C 27.519531 -1.664062 22.359375 0 15.609375 0 L 4.796875 0 L 4.796875 -38.15625 L 16.78125 -38.15625 C 23.007812 -38.15625 27.847656 -36.507812 31.296875 -33.21875 C 34.742188 -29.9375 36.46875 -25.34375 36.46875 -19.4375 Z M 28.0625 -19.234375 C 28.0625 -27.429688 24.441406 -31.53125 17.203125 -31.53125 L 12.890625 -31.53125 L 12.890625 -6.6875 L 16.359375 -6.6875 C 24.160156 -6.6875 28.0625 -10.867188 28.0625 -19.234375 Z M 28.0625 -19.234375 "/></g></g></g><g fill="#222838" fill-opacity="1"><g transform="translate(1306.987701, 97.064722)"><g><path d="M 27.328125 -10.59375 C 27.328125 -7.144531 26.085938 -4.429688 23.609375 -2.453125 C 21.128906 -0.472656 17.679688 0.515625 13.265625 0.515625 C 9.191406 0.515625 5.585938 -0.25 2.453125 -1.78125 L 2.453125 -9.296875 C 5.023438 -8.140625 7.203125 -7.328125 8.984375 -6.859375 C 10.773438 -6.390625 12.410156 -6.15625 13.890625 -6.15625 C 15.660156 -6.15625 17.019531 -6.492188 17.96875 -7.171875 C 18.914062 -7.859375 19.390625 -8.867188 19.390625 -10.203125 C 19.390625 -10.953125 19.179688 -11.617188 18.765625 -12.203125 C 18.347656 -12.785156 17.734375 -13.34375 16.921875 -13.875 C 16.117188 -14.414062 14.472656 -15.28125 11.984375 -16.46875 C 9.648438 -17.5625 7.898438 -18.613281 6.734375 -19.625 C 5.566406 -20.632812 4.632812 -21.804688 3.9375 -23.140625 C 3.238281 -24.484375 2.890625 -26.050781 2.890625 -27.84375 C 2.890625 -31.21875 4.035156 -33.867188 6.328125 -35.796875 C 8.617188 -37.734375 11.78125 -38.703125 15.8125 -38.703125 C 17.800781 -38.703125 19.691406 -38.46875 21.484375 -38 C 23.285156 -37.53125 25.171875 -36.867188 27.140625 -36.015625 L 24.53125 -29.734375 C 22.5 -30.566406 20.816406 -31.144531 19.484375 -31.46875 C 18.148438 -31.800781 16.84375 -31.96875 15.5625 -31.96875 C 14.03125 -31.96875 12.851562 -31.609375 12.03125 -30.890625 C 11.21875 -30.179688 10.8125 -29.253906 10.8125 -28.109375 C 10.8125 -27.398438 10.972656 -26.78125 11.296875 -26.25 C 11.628906 -25.71875 12.15625 -25.203125 12.875 -24.703125 C 13.601562 -24.203125 15.316406 -23.3125 18.015625 -22.03125 C 21.578125 -20.320312 24.019531 -18.609375 25.34375 -16.890625 C 26.664062 -15.179688 27.328125 -13.082031 27.328125 -10.59375 Z M 27.328125 -10.59375 "/></g></g></g><g fill="#222838" fill-opacity="1"><g transform="translate(1357.802669, 97.064722)"><g><path d="M 26.78125 0 L 4.796875 0 L 4.796875 -38.15625 L 26.78125 -38.15625 L 26.78125 -31.53125 L 12.890625 -31.53125 L 12.890625 -23.15625 L 25.8125 -23.15625 L 25.8125 -16.515625 L 12.890625 -16.515625 L 12.890625 -6.6875 L 26.78125 -6.6875 Z M 26.78125 0 "/></g></g></g><g fill="#222838" fill-opacity="1"><g transform="translate(1409.113415, 97.064722)"><g><path d="M 38.65625 0 L 28.375 0 L 11.765625 -28.859375 L 11.53125 -28.859375 C 11.863281 -23.765625 12.03125 -20.128906 12.03125 -17.953125 L 12.03125 0 L 4.796875 0 L 4.796875 -38.15625 L 15 -38.15625 L 31.578125 -9.578125 L 31.765625 -9.578125 C 31.503906 -14.535156 31.375 -18.039062 31.375 -20.09375 L 31.375 -38.15625 L 38.65625 -38.15625 Z M 38.65625 0 "/></g></g></g><g fill="#222838" fill-opacity="1"><g transform="translate(356.726435, 192.571403)"><g><path d="M 22.3125 0 L 4.375 0 L 4.375 -32.109375 L 22.3125 -32.109375 L 22.3125 -28.546875 L 8.40625 -28.546875 L 8.40625 -18.53125 L 21.5 -18.53125 L 21.5 -15.03125 L 8.40625 -15.03125 L 8.40625 -3.5625 L 22.3125 -3.5625 Z M 22.3125 0 "/></g></g></g><g fill="#222838" fill-opacity="1"><g transform="translate(399.729653, 192.571403)"><g><path d="M 8.40625 -16.6875 L 13.21875 -16.6875 C 15.820312 -16.6875 17.722656 -17.195312 18.921875 -18.21875 C 20.128906 -19.25 20.734375 -20.773438 20.734375 -22.796875 C 20.734375 -24.816406 20.125 -26.289062 18.90625 -27.21875 C 17.695312 -28.15625 15.726562 -28.625 13 -28.625 L 8.40625 -28.625 Z M 8.40625 -13.265625 L 8.40625 0 L 4.375 0 L 4.375 -32.109375 L 13.21875 -32.109375 C 17.207031 -32.109375 20.15625 -31.347656 22.0625 -29.828125 C 23.976562 -28.316406 24.9375 -26.039062 24.9375 -23 C 24.9375 -18.738281 22.789062 -15.867188 18.5 -14.390625 L 27.296875 0 L 22.578125 0 L 14.796875 -13.265625 Z M 8.40625 -13.265625 "/></g></g></g><g fill="#222838" fill-opacity="1"><g transform="translate(445.697053, 192.571403)"><g><path d="M 28.921875 0 L 24.890625 0 L 24.890625 -14.984375 L 8.40625 -14.984375 L 8.40625 0 L 4.375 0 L 4.375 -32.109375 L 8.40625 -32.109375 L 8.40625 -18.53125 L 24.890625 -18.53125 L 24.890625 -32.109375 L 28.921875 -32.109375 Z M 28.921875 0 "/></g></g></g><g fill="#222838" fill-opacity="1"><g transform="translate(497.021935, 192.571403)"><g><path d="M 0 -32.109375 L 4.234375 -32.109375 L 11.46875 -11.515625 C 12.382812 -8.898438 13.054688 -6.5625 13.484375 -4.5 C 13.847656 -6.34375 14.53125 -8.707031 15.53125 -11.59375 L 22.71875 -32.109375 L 27 -32.109375 L 15.53125 0 L 11.46875 0 Z M 0 -32.109375 "/></g></g></g><g fill="#222838" fill-opacity="1"><g transform="translate(542.001275, 192.571403)"><g><path d="M 22.3125 0 L 4.375 0 L 4.375 -32.109375 L 22.3125 -32.109375 L 22.3125 -28.546875 L 8.40625 -28.546875 L 8.40625 -18.53125 L 21.5 -18.53125 L 21.5 -15.03125 L 8.40625 -15.03125 L 8.40625 -3.5625 L 22.3125 -3.5625 Z M 22.3125 0 "/></g></g></g><g fill="#222838" fill-opacity="1"><g transform="translate(585.004493, 192.571403)"><g><path d="M 8.40625 -16.6875 L 13.21875 -16.6875 C 15.820312 -16.6875 17.722656 -17.195312 18.921875 -18.21875 C 20.128906 -19.25 20.734375 -20.773438 20.734375 -22.796875 C 20.734375 -24.816406 20.125 -26.289062 18.90625 -27.21875 C 17.695312 -28.15625 15.726562 -28.625 13 -28.625 L 8.40625 -28.625 Z M 8.40625 -13.265625 L 8.40625 0 L 4.375 0 L 4.375 -32.109375 L 13.21875 -32.109375 C 17.207031 -32.109375 20.15625 -31.347656 22.0625 -29.828125 C 23.976562 -28.316406 24.9375 -26.039062 24.9375 -23 C 24.9375 -18.738281 22.789062 -15.867188 18.5 -14.390625 L 27.296875 0 L 22.578125 0 L 14.796875 -13.265625 Z M 8.40625 -13.265625 "/></g></g></g><g fill="#222838" fill-opacity="1"><g transform="translate(630.971892, 192.571403)"><g><path d="M 0 -32.109375 L 4.234375 -32.109375 L 11.46875 -11.515625 C 12.382812 -8.898438 13.054688 -6.5625 13.484375 -4.5 C 13.847656 -6.34375 14.53125 -8.707031 15.53125 -11.59375 L 22.71875 -32.109375 L 27 -32.109375 L 15.53125 0 L 11.46875 0 Z M 0 -32.109375 "/></g></g></g><g fill="#222838" fill-opacity="1"><g transform="translate(675.951232, 192.571403)"><g><path d="M 22.578125 -8.59375 C 22.578125 -5.789062 21.566406 -3.582031 19.546875 -1.96875 C 17.523438 -0.363281 14.710938 0.4375 11.109375 0.4375 C 7.304688 0.4375 4.363281 -0.0664062 2.28125 -1.078125 L 2.28125 -4.9375 C 3.644531 -4.351562 5.132812 -3.890625 6.75 -3.546875 C 8.375 -3.210938 9.890625 -3.046875 11.296875 -3.046875 C 13.691406 -3.046875 15.492188 -3.507812 16.703125 -4.4375 C 17.921875 -5.363281 18.53125 -6.628906 18.53125 -8.234375 C 18.53125 -9.304688 18.3125 -10.1875 17.875 -10.875 C 17.4375 -11.5625 16.703125 -12.203125 15.671875 -12.796875 C 14.640625 -13.398438 13.078125 -14.082031 10.984375 -14.84375 C 8.015625 -15.925781 5.890625 -17.203125 4.609375 -18.671875 C 3.335938 -20.148438 2.703125 -22.050781 2.703125 -24.375 C 2.703125 -26.882812 3.640625 -28.878906 5.515625 -30.359375 C 7.398438 -31.835938 9.878906 -32.578125 12.953125 -32.578125 C 16.160156 -32.578125 19.113281 -31.972656 21.8125 -30.765625 L 20.5625 -27.296875 C 17.8125 -28.441406 15.25 -29.015625 12.875 -29.015625 C 10.96875 -29.015625 9.472656 -28.601562 8.390625 -27.78125 C 7.316406 -26.96875 6.78125 -25.820312 6.78125 -24.34375 C 6.78125 -23.28125 6.988281 -22.398438 7.40625 -21.703125 C 7.832031 -21.015625 8.507812 -20.382812 9.4375 -19.8125 C 10.363281 -19.238281 11.820312 -18.585938 13.8125 -17.859375 C 16.195312 -16.984375 17.972656 -16.128906 19.140625 -15.296875 C 20.316406 -14.472656 21.179688 -13.519531 21.734375 -12.4375 C 22.296875 -11.363281 22.578125 -10.082031 22.578125 -8.59375 Z M 22.578125 -8.59375 "/></g></g></g><g fill="#222838" fill-opacity="1"><g transform="translate(718.625096, 192.571403)"><g><path d="M 18.125 -29.015625 C 14.664062 -29.015625 11.945312 -27.859375 9.96875 -25.546875 C 7.988281 -23.234375 7 -20.070312 7 -16.0625 C 7 -11.914062 7.957031 -8.71875 9.875 -6.46875 C 11.800781 -4.21875 14.535156 -3.09375 18.078125 -3.09375 C 20.359375 -3.09375 22.925781 -3.519531 25.78125 -4.375 L 25.78125 -0.859375 C 24.425781 -0.359375 23.117188 -0.0195312 21.859375 0.15625 C 20.597656 0.34375 19.144531 0.4375 17.5 0.4375 C 12.769531 0.4375 9.128906 -1 6.578125 -3.875 C 4.023438 -6.75 2.75 -10.820312 2.75 -16.09375 C 2.75 -19.40625 3.359375 -22.304688 4.578125 -24.796875 C 5.796875 -27.285156 7.570312 -29.203125 9.90625 -30.546875 C 12.25 -31.898438 15.003906 -32.578125 18.171875 -32.578125 C 21.566406 -32.578125 24.519531 -31.945312 27.03125 -30.6875 L 25.40625 -27.265625 C 22.84375 -28.429688 20.414062 -29.015625 18.125 -29.015625 Z M 18.125 -29.015625 "/></g></g></g><g fill="#222838" fill-opacity="1"><g transform="translate(764.59235, 192.571403)"><g><path d="M 32.390625 -16.09375 C 32.390625 -10.957031 31.085938 -6.914062 28.484375 -3.96875 C 25.890625 -1.03125 22.257812 0.4375 17.59375 0.4375 C 12.863281 0.4375 9.207031 -1.003906 6.625 -3.890625 C 4.039062 -6.785156 2.75 -10.867188 2.75 -16.140625 C 2.75 -21.367188 4.03125 -25.421875 6.59375 -28.296875 C 9.164062 -31.179688 12.847656 -32.625 17.640625 -32.625 C 22.296875 -32.625 25.914062 -31.160156 28.5 -28.234375 C 31.09375 -25.316406 32.390625 -21.269531 32.390625 -16.09375 Z M 7 -16.09375 C 7 -11.851562 7.898438 -8.617188 9.703125 -6.390625 C 11.503906 -4.160156 14.132812 -3.046875 17.59375 -3.046875 C 21.03125 -3.046875 23.640625 -4.144531 25.421875 -6.34375 C 27.210938 -8.539062 28.109375 -11.789062 28.109375 -16.09375 C 28.109375 -20.382812 27.222656 -23.617188 25.453125 -25.796875 C 23.679688 -27.972656 21.078125 -29.0625 17.640625 -29.0625 C 14.148438 -29.0625 11.503906 -27.957031 9.703125 -25.75 C 7.898438 -23.550781 7 -20.332031 7 -16.09375 Z M 7 -16.09375 "/></g></g></g><g fill="#222838" fill-opacity="1"><g transform="translate(817.256458, 192.571403)"><g><path d="M 24.515625 0 L 20.640625 -9.953125 L 7.90625 -9.953125 L 4.078125 0 L 0 0 L 12.546875 -32.25 L 16.1875 -32.25 L 28.703125 0 Z M 19.4375 -13.53125 L 15.84375 -23.265625 L 14.296875 -28.078125 C 13.859375 -26.316406 13.398438 -24.710938 12.921875 -23.265625 L 9.265625 -13.53125 Z M 19.4375 -13.53125 "/></g></g></g><g fill="#222838" fill-opacity="1"><g transform="translate(863.553065, 192.571403)"><g><path d="M 18.125 -29.015625 C 14.664062 -29.015625 11.945312 -27.859375 9.96875 -25.546875 C 7.988281 -23.234375 7 -20.070312 7 -16.0625 C 7 -11.914062 7.957031 -8.71875 9.875 -6.46875 C 11.800781 -4.21875 14.535156 -3.09375 18.078125 -3.09375 C 20.359375 -3.09375 22.925781 -3.519531 25.78125 -4.375 L 25.78125 -0.859375 C 24.425781 -0.359375 23.117188 -0.0195312 21.859375 0.15625 C 20.597656 0.34375 19.144531 0.4375 17.5 0.4375 C 12.769531 0.4375 9.128906 -1 6.578125 -3.875 C 4.023438 -6.75 2.75 -10.820312 2.75 -16.09375 C 2.75 -19.40625 3.359375 -22.304688 4.578125 -24.796875 C 5.796875 -27.285156 7.570312 -29.203125 9.90625 -30.546875 C 12.25 -31.898438 15.003906 -32.578125 18.171875 -32.578125 C 21.566406 -32.578125 24.519531 -31.945312 27.03125 -30.6875 L 25.40625 -27.265625 C 22.84375 -28.429688 20.414062 -29.015625 18.125 -29.015625 Z M 18.125 -29.015625 "/></g></g></g><g fill="#222838" fill-opacity="1"><g transform="translate(909.959603, 192.571403)"><g><path d="M 28.921875 0 L 24.890625 0 L 24.890625 -14.984375 L 8.40625 -14.984375 L 8.40625 0 L 4.375 0 L 4.375 -32.109375 L 8.40625 -32.109375 L 8.40625 -18.53125 L 24.890625 -18.53125 L 24.890625 -32.109375 L 28.921875 -32.109375 Z M 28.921875 0 "/></g></g></g><g fill="#222838" fill-opacity="1"><g transform="translate(961.284485, 192.571403)"><g/></g></g><g fill="#222838" fill-opacity="1"><g transform="translate(990.959866, 192.571403)"><g><path d="M 9.265625 -25.640625 C 9.265625 -24.679688 9.523438 -23.722656 10.046875 -22.765625 C 10.566406 -21.816406 11.414062 -20.765625 12.59375 -19.609375 C 14.40625 -20.617188 15.679688 -21.582031 16.421875 -22.5 C 17.171875 -23.425781 17.546875 -24.484375 17.546875 -25.671875 C 17.546875 -26.785156 17.171875 -27.679688 16.421875 -28.359375 C 15.679688 -29.035156 14.71875 -29.375 13.53125 -29.375 C 12.226562 -29.375 11.191406 -29.023438 10.421875 -28.328125 C 9.648438 -27.640625 9.265625 -26.742188 9.265625 -25.640625 Z M 12.625 -3.046875 C 15.945312 -3.046875 18.753906 -4.117188 21.046875 -6.265625 L 11.6875 -15.328125 C 9.664062 -14.117188 8.300781 -13.015625 7.59375 -12.015625 C 6.882812 -11.015625 6.53125 -9.84375 6.53125 -8.5 C 6.53125 -6.84375 7.09375 -5.519531 8.21875 -4.53125 C 9.34375 -3.539062 10.8125 -3.046875 12.625 -3.046875 Z M 2.390625 -8.375 C 2.390625 -10.269531 2.878906 -11.9375 3.859375 -13.375 C 4.847656 -14.8125 6.664062 -16.289062 9.3125 -17.8125 C 8.1875 -19.082031 7.382812 -20.085938 6.90625 -20.828125 C 6.425781 -21.566406 6.054688 -22.328125 5.796875 -23.109375 C 5.535156 -23.898438 5.40625 -24.726562 5.40625 -25.59375 C 5.40625 -27.757812 6.128906 -29.472656 7.578125 -30.734375 C 9.023438 -31.992188 11.0625 -32.625 13.6875 -32.625 C 16.101562 -32.625 18 -32.003906 19.375 -30.765625 C 20.757812 -29.535156 21.453125 -27.835938 21.453125 -25.671875 C 21.453125 -24.078125 20.953125 -22.613281 19.953125 -21.28125 C 18.953125 -19.945312 17.3125 -18.609375 15.03125 -17.265625 L 23.703125 -8.921875 C 25.066406 -10.503906 26.117188 -12.882812 26.859375 -16.0625 L 30.859375 -16.0625 C 29.847656 -11.882812 28.316406 -8.660156 26.265625 -6.390625 L 32.84375 0 L 27.484375 0 L 23.5625 -3.78125 C 21.894531 -2.28125 20.171875 -1.203125 18.390625 -0.546875 C 16.617188 0.109375 14.65625 0.4375 12.5 0.4375 C 9.351562 0.4375 6.878906 -0.328125 5.078125 -1.859375 C 3.285156 -3.398438 2.390625 -5.570312 2.390625 -8.375 Z M 2.390625 -8.375 "/></g></g></g><g fill="#222838" fill-opacity="1"><g transform="translate(1041.867568, 192.571403)"><g/></g></g><g fill="#222838" fill-opacity="1"><g transform="translate(1071.542948, 192.571403)"><g><path d="M 27.859375 0 L 23.078125 0 L 11.6875 -15.328125 L 8.40625 -12.453125 L 8.40625 0 L 4.375 0 L 4.375 -32.109375 L 8.40625 -32.109375 L 8.40625 -16.28125 L 11.1875 -19.328125 L 22.625 -32.109375 L 27.34375 -32.109375 L 14.625 -18.125 Z M 27.859375 0 "/></g></g></g><g fill="#222838" fill-opacity="1"><g transform="translate(1116.939323, 192.571403)"><g><path d="M 32.390625 -16.09375 C 32.390625 -10.957031 31.085938 -6.914062 28.484375 -3.96875 C 25.890625 -1.03125 22.257812 0.4375 17.59375 0.4375 C 12.863281 0.4375 9.207031 -1.003906 6.625 -3.890625 C 4.039062 -6.785156 2.75 -10.867188 2.75 -16.140625 C 2.75 -21.367188 4.03125 -25.421875 6.59375 -28.296875 C 9.164062 -31.179688 12.847656 -32.625 17.640625 -32.625 C 22.296875 -32.625 25.914062 -31.160156 28.5 -28.234375 C 31.09375 -25.316406 32.390625 -21.269531 32.390625 -16.09375 Z M 7 -16.09375 C 7 -11.851562 7.898438 -8.617188 9.703125 -6.390625 C 11.503906 -4.160156 14.132812 -3.046875 17.59375 -3.046875 C 21.03125 -3.046875 23.640625 -4.144531 25.421875 -6.34375 C 27.210938 -8.539062 28.109375 -11.789062 28.109375 -16.09375 C 28.109375 -20.382812 27.222656 -23.617188 25.453125 -25.796875 C 23.679688 -27.972656 21.078125 -29.0625 17.640625 -29.0625 C 14.148438 -29.0625 11.503906 -27.957031 9.703125 -25.75 C 7.898438 -23.550781 7 -20.332031 7 -16.09375 Z M 7 -16.09375 "/></g></g></g><g fill="#222838" fill-opacity="1"><g transform="translate(1170.042714, 192.571403)"><g><path d="M 29.828125 0 L 25.109375 0 L 7.90625 -26.671875 L 7.734375 -26.671875 L 7.84375 -24.890625 C 8.019531 -22.222656 8.109375 -19.910156 8.109375 -17.953125 L 8.109375 0 L 4.375 0 L 4.375 -32.109375 L 9.046875 -32.109375 L 10.03125 -30.546875 L 20.578125 -14.25 L 26.1875 -5.53125 L 26.359375 -5.53125 C 26.328125 -5.882812 26.265625 -7.140625 26.171875 -9.296875 C 26.085938 -11.460938 26.046875 -13.023438 26.046875 -13.984375 L 26.046875 -32.109375 L 29.828125 -32.109375 Z M 29.828125 0 "/></g></g></g><g fill="#222838" fill-opacity="1"><g transform="translate(1222.201911, 192.571403)"><g><path d="M 22.578125 -8.59375 C 22.578125 -5.789062 21.566406 -3.582031 19.546875 -1.96875 C 17.523438 -0.363281 14.710938 0.4375 11.109375 0.4375 C 7.304688 0.4375 4.363281 -0.0664062 2.28125 -1.078125 L 2.28125 -4.9375 C 3.644531 -4.351562 5.132812 -3.890625 6.75 -3.546875 C 8.375 -3.210938 9.890625 -3.046875 11.296875 -3.046875 C 13.691406 -3.046875 15.492188 -3.507812 16.703125 -4.4375 C 17.921875 -5.363281 18.53125 -6.628906 18.53125 -8.234375 C 18.53125 -9.304688 18.3125 -10.1875 17.875 -10.875 C 17.4375 -11.5625 16.703125 -12.203125 15.671875 -12.796875 C 14.640625 -13.398438 13.078125 -14.082031 10.984375 -14.84375 C 8.015625 -15.925781 5.890625 -17.203125 4.609375 -18.671875 C 3.335938 -20.148438 2.703125 -22.050781 2.703125 -24.375 C 2.703125 -26.882812 3.640625 -28.878906 5.515625 -30.359375 C 7.398438 -31.835938 9.878906 -32.578125 12.953125 -32.578125 C 16.160156 -32.578125 19.113281 -31.972656 21.8125 -30.765625 L 20.5625 -27.296875 C 17.8125 -28.441406 15.25 -29.015625 12.875 -29.015625 C 10.96875 -29.015625 9.472656 -28.601562 8.390625 -27.78125 C 7.316406 -26.96875 6.78125 -25.820312 6.78125 -24.34375 C 6.78125 -23.28125 6.988281 -22.398438 7.40625 -21.703125 C 7.832031 -21.015625 8.507812 -20.382812 9.4375 -19.8125 C 10.363281 -19.238281 11.820312 -18.585938 13.8125 -17.859375 C 16.195312 -16.984375 17.972656 -16.128906 19.140625 -15.296875 C 20.316406 -14.472656 21.179688 -13.519531 21.734375 -12.4375 C 22.296875 -11.363281 22.578125 -10.082031 22.578125 -8.59375 Z M 22.578125 -8.59375 "/></g></g></g><g fill="#222838" fill-opacity="1"><g transform="translate(1264.875824, 192.571403)"><g><path d="M 28.796875 -32.109375 L 28.796875 -11.328125 C 28.796875 -7.671875 27.6875 -4.796875 25.46875 -2.703125 C 23.257812 -0.609375 20.195312 0.4375 16.28125 0.4375 C 12.394531 0.4375 9.382812 -0.617188 7.25 -2.734375 C 5.113281 -4.847656 4.046875 -7.742188 4.046875 -11.421875 L 4.046875 -32.109375 L 8.109375 -32.109375 L 8.109375 -11.296875 C 8.109375 -8.671875 8.804688 -6.640625 10.203125 -5.203125 C 11.597656 -3.765625 13.703125 -3.046875 16.515625 -3.046875 C 19.171875 -3.046875 21.210938 -3.753906 22.640625 -5.171875 C 24.066406 -6.597656 24.78125 -8.648438 24.78125 -11.328125 L 24.78125 -32.109375 Z M 28.796875 -32.109375 "/></g></g></g><g fill="#222838" fill-opacity="1"><g transform="translate(1315.739661, 192.571403)"><g><path d="M 4.375 0 L 4.375 -32.109375 L 8.40625 -32.109375 L 8.40625 -3.609375 L 22.453125 -3.609375 L 22.453125 0 Z M 4.375 0 "/></g></g></g><g fill="#222838" fill-opacity="1"><g transform="translate(1357.293676, 192.571403)"><g><path d="M 22.3125 0 L 4.375 0 L 4.375 -32.109375 L 22.3125 -32.109375 L 22.3125 -28.546875 L 8.40625 -28.546875 L 8.40625 -18.53125 L 21.5 -18.53125 L 21.5 -15.03125 L 8.40625 -15.03125 L 8.40625 -3.5625 L 22.3125 -3.5625 Z M 22.3125 0 "/></g></g></g><g fill="#222838" fill-opacity="1"><g transform="translate(1400.296845, 192.571403)"><g><path d="M 29.828125 0 L 25.109375 0 L 7.90625 -26.671875 L 7.734375 -26.671875 L 7.84375 -24.890625 C 8.019531 -22.222656 8.109375 -19.910156 8.109375 -17.953125 L 8.109375 0 L 4.375 0 L 4.375 -32.109375 L 9.046875 -32.109375 L 10.03125 -30.546875 L 20.578125 -14.25 L 26.1875 -5.53125 L 26.359375 -5.53125 C 26.328125 -5.882812 26.265625 -7.140625 26.171875 -9.296875 C 26.085938 -11.460938 26.046875 -13.023438 26.046875 -13.984375 L 26.046875 -32.109375 L 29.828125 -32.109375 Z M 29.828125 0 "/></g></g></g><g fill="#222838" fill-opacity="1"><g transform="translate(1452.456139, 192.571403)"><g><path d="M 14.546875 0 L 10.484375 0 L 10.484375 -28.546875 L 0.4375 -28.546875 L 0.4375 -32.109375 L 24.515625 -32.109375 L 24.515625 -28.546875 L 14.546875 -28.546875 Z M 14.546875 0 "/></g></g></g><g fill="#222838" fill-opacity="1"><g transform="translate(1495.494397, 192.571403)"><g/></g></g><path fill="#222838" d="M 152.449219 203.683594 C 140.441406 103.023438 164.457031 71.589844 253.660156 36.976562 C 262.644531 125.980469 252.050781 165.535156 152.449219 203.683594 " fill-opacity="1" fill-rule="nonzero"/><path fill="#222838" d="M 152.277344 203.683594 C 164.285156 103.023438 140.265625 71.589844 51.066406 36.976562 C 42.082031 125.980469 52.675781 165.535156 152.277344 203.683594 " fill-opacity="1" fill-rule="nonzero"/><g clip-path="url(#dc7572a151)"><path fill="#222838" d="M 152.503906 201.757812 C 152.503906 201.757812 212.492188 171.6875 250.636719 239.261719 C 162.105469 258.332031 152.503906 201.757812 152.503906 201.757812 " fill-opacity="1" fill-rule="nonzero"/></g><g clip-path="url(#000602bdd1)"><path fill="#222838" d="M 152.277344 201.757812 C 152.277344 201.757812 92.285156 171.6875 54.140625 239.261719 C 142.671875 258.332031 152.277344 201.757812 152.277344 201.757812 " fill-opacity="1" fill-rule="nonzero"/></g><path fill="#222838" d="M 154.214844 202.050781 C 233.929688 206.066406 280.539062 174.085938 300.65625 101.558594 C 300.195312 101.554688 299.726562 101.554688 299.265625 101.554688 C 246.878906 101.554688 211.683594 109.140625 188.675781 125.355469 C 166.195312 141.199219 155.222656 165.59375 154.214844 202.050781 Z M 167.335938 205.835938 C 162.472656 205.835938 157.480469 205.691406 152.355469 205.402344 C 151.429688 205.351562 150.710938 204.574219 150.726562 203.648438 C 151.472656 165.082031 162.898438 139.308594 186.6875 122.539062 C 210.839844 105.519531 247.78125 97.757812 302.921875 98.121094 C 303.453125 98.125 303.957031 98.375 304.28125 98.800781 C 304.605469 99.222656 304.710938 99.773438 304.574219 100.289062 C 285.410156 172.003906 241.621094 205.835938 167.335938 205.835938 " fill-opacity="1" fill-rule="nonzero"/><path fill="#222838" d="M 4.066406 101.558594 C 24.1875 174.085938 70.796875 206.066406 150.511719 202.050781 C 149.503906 165.59375 138.53125 141.199219 116.050781 125.355469 C 92.839844 109 57.25 101.421875 4.066406 101.558594 Z M 137.390625 205.835938 C 63.097656 205.835938 19.320312 172.007812 0.152344 100.289062 C 0.0117188 99.773438 0.121094 99.222656 0.445312 98.800781 C 0.769531 98.375 1.273438 98.125 1.804688 98.121094 C 56.945312 97.757812 93.886719 105.519531 118.035156 122.539062 C 141.828125 139.308594 153.253906 165.082031 154 203.648438 C 154.015625 204.574219 153.296875 205.351562 152.371094 205.402344 C 147.25 205.691406 142.25 205.835938 137.390625 205.835938 " fill-opacity="1" fill-rule="nonzero"/><g clip-path="url(#220502f6df)"><path fill="#222838" d="M 152.515625 4.992188 C 147.964844 10.363281 132.085938 29.71875 117.917969 54.371094 C 102.636719 80.957031 86.261719 119.324219 95.039062 151.125 C 101.511719 174.59375 120.839844 191.671875 152.484375 201.882812 C 185.523438 192.589844 205.707031 176.09375 212.488281 152.847656 C 221.683594 121.304688 204.59375 82.441406 188.640625 55.394531 C 173.8125 30.257812 157.203125 10.425781 152.515625 4.992188 Z M 152.449219 205.402344 C 152.273438 205.402344 152.097656 205.375 151.925781 205.324219 C 118.808594 194.75 98.550781 176.824219 91.714844 152.039062 C 82.621094 119.074219 99.335938 79.769531 114.957031 52.597656 C 131.796875 23.320312 151.019531 1.441406 151.210938 1.222656 C 151.539062 0.851562 152.003906 0.644531 152.496094 0.640625 C 152.976562 0.636719 153.453125 0.84375 153.785156 1.210938 C 153.984375 1.433594 174.046875 23.871094 191.609375 53.644531 C 207.910156 81.273438 225.335938 121.085938 215.796875 153.808594 C 208.628906 178.394531 187.472656 195.734375 152.910156 205.339844 C 152.761719 205.382812 152.605469 205.402344 152.449219 205.402344 " fill-opacity="1" fill-rule="nonzero"/></g><path fill="#d8d2d0" d="M 152.453125 205.402344 C 152.441406 205.402344 152.429688 205.402344 152.417969 205.402344 C 151.46875 205.382812 150.710938 204.597656 150.726562 203.644531 C 150.742188 202.9375 150.757812 202.226562 150.792969 201.527344 C 151.007812 193.976562 151.671875 186.804688 152.769531 180.261719 C 158.785156 143.964844 178.085938 121.390625 213.511719 109.214844 C 225.363281 105.121094 238.855469 102.242188 254.757812 100.417969 C 255.699219 100.308594 256.554688 100.984375 256.667969 101.933594 C 256.773438 102.878906 256.09375 103.734375 255.152344 103.839844 C 239.503906 105.636719 226.25 108.460938 214.636719 112.472656 C 180.53125 124.191406 161.953125 145.910156 156.167969 180.828125 C 155.097656 187.21875 154.449219 194.230469 154.238281 201.671875 C 154.199219 202.375 154.1875 203.042969 154.175781 203.710938 C 154.15625 204.652344 153.386719 205.402344 152.453125 205.402344 " fill-opacity="1" fill-rule="nonzero"/><path fill="#d8d2d0" d="M 152.277344 205.335938 C 151.324219 205.335938 150.554688 204.628906 150.554688 203.679688 C 150.539062 202.988281 150.53125 202.355469 150.496094 201.722656 C 150.277344 194.234375 149.628906 187.222656 148.558594 180.832031 C 142.894531 146.648438 125.039062 125.183594 92.371094 113.265625 C 80.246094 108.84375 66.25 105.761719 49.578125 103.839844 C 48.632812 103.730469 47.953125 102.878906 48.0625 101.933594 C 48.171875 100.984375 49.035156 100.308594 49.972656 100.417969 C 66.917969 102.371094 81.171875 105.511719 93.550781 110.027344 C 127.511719 122.414062 146.070312 144.730469 151.960938 180.265625 C 153.054688 186.808594 153.71875 193.980469 153.9375 201.574219 C 153.972656 202.203125 153.984375 202.878906 154 203.554688 C 154 204.503906 153.226562 205.335938 152.277344 205.335938 " fill-opacity="1" fill-rule="nonzero"/><path fill="#d8d2d0" d="M 154 203.613281 L 154.007812 203.613281 Z M 152.453125 205.402344 C 152.3125 205.402344 152.171875 205.382812 152.03125 205.351562 C 151.96875 205.332031 151.898438 205.3125 151.824219 205.289062 L 151.824219 205.285156 C 151.757812 205.269531 151.691406 205.246094 151.628906 205.21875 C 151.355469 205.136719 151.089844 205.050781 150.828125 204.964844 C 143.410156 202.535156 136.636719 199.734375 130.652344 196.628906 C 96.695312 179.050781 83.445312 150.34375 91.269531 111.308594 C 94.125 97.050781 99.828125 81.480469 108.21875 65.039062 C 108.652344 64.1875 109.691406 63.851562 110.539062 64.285156 C 111.386719 64.71875 111.722656 65.753906 111.289062 66.605469 C 103.039062 82.765625 97.441406 98.035156 94.648438 111.988281 C 87.160156 149.335938 99.808594 176.785156 132.238281 193.570312 C 138.058594 196.589844 144.65625 199.316406 151.859375 201.675781 C 152.074219 201.746094 152.285156 201.8125 152.492188 201.878906 C 166.007812 198.070312 177.480469 193.027344 186.59375 186.882812 C 211.386719 170.1875 220.066406 144.734375 212.390625 111.230469 C 209.195312 97.296875 203.191406 82.042969 194.542969 65.894531 C 194.09375 65.054688 194.410156 64.011719 195.25 63.5625 C 196.089844 63.113281 197.132812 63.429688 197.578125 64.269531 C 206.375 80.683594 212.488281 96.226562 215.753906 110.460938 C 223.777344 145.492188 214.613281 172.167969 188.523438 189.742188 C 178.984375 196.167969 167.003906 201.414062 152.914062 205.335938 C 152.761719 205.382812 152.605469 205.402344 152.453125 205.402344 " fill-opacity="1" fill-rule="nonzero"/></g></g></svg>