<svg xmlns="http://www.w3.org/2000/svg" xmlns:xlink="http://www.w3.org/1999/xlink" width="500" zoomAndPan="magnify" viewBox="0 0 375 374.999991" height="500" preserveAspectRatio="xMidYMid meet" version="1.0"><path fill="#222838" d="M 187.605469 283.722656 C 172.828125 159.851562 202.386719 121.167969 312.15625 78.570312 C 323.214844 188.101562 310.175781 236.78125 187.605469 283.722656 " fill-opacity="1" fill-rule="nonzero"/><path fill="#222838" d="M 187.394531 283.722656 C 202.171875 159.851562 172.613281 121.167969 62.84375 78.570312 C 51.785156 188.101562 64.824219 236.78125 187.394531 283.722656 " fill-opacity="1" fill-rule="nonzero"/><path fill="#222838" d="M 187.671875 281.355469 C 187.671875 281.355469 261.496094 244.347656 308.4375 327.507812 C 199.488281 350.976562 187.671875 281.355469 187.671875 281.355469 " fill-opacity="1" fill-rule="nonzero"/><path fill="#222838" d="M 187.394531 281.355469 C 187.394531 281.355469 113.566406 244.347656 66.625 327.507812 C 175.574219 350.976562 187.394531 281.355469 187.394531 281.355469 " fill-opacity="1" fill-rule="nonzero"/><path fill="#222838" d="M 189.777344 281.710938 C 287.875 286.660156 345.234375 247.300781 369.992188 158.046875 C 369.421875 158.042969 368.847656 158.042969 368.28125 158.042969 C 303.8125 158.042969 260.5 167.378906 232.1875 187.332031 C 204.523438 206.828125 191.015625 236.851562 189.777344 281.710938 Z M 205.925781 286.371094 C 199.941406 286.371094 193.800781 286.195312 187.492188 285.839844 C 186.351562 285.773438 185.464844 284.820312 185.488281 283.679688 C 186.402344 236.222656 200.464844 204.503906 229.742188 183.867188 C 259.460938 162.921875 304.925781 153.371094 372.777344 153.816406 C 373.433594 153.824219 374.054688 154.128906 374.449219 154.652344 C 374.851562 155.171875 374.984375 155.851562 374.8125 156.484375 C 351.230469 244.738281 297.339844 286.371094 205.925781 286.371094 " fill-opacity="1" fill-rule="nonzero"/><path fill="#222838" d="M 5.007812 158.046875 C 29.765625 247.300781 87.121094 286.65625 185.222656 281.710938 C 183.984375 236.851562 170.476562 206.828125 142.8125 187.332031 C 114.25 167.203125 70.453125 157.878906 5.007812 158.046875 Z M 169.074219 286.371094 C 77.648438 286.371094 23.773438 244.746094 0.1875 156.484375 C 0.015625 155.851562 0.148438 155.171875 0.550781 154.652344 C 0.945312 154.128906 1.566406 153.824219 2.222656 153.816406 C 70.074219 153.371094 115.539062 162.921875 145.257812 183.867188 C 174.535156 204.503906 188.597656 236.222656 189.511719 283.679688 C 189.535156 284.820312 188.648438 285.773438 187.507812 285.839844 C 181.207031 286.195312 175.054688 286.371094 169.074219 286.371094 " fill-opacity="1" fill-rule="nonzero"/><path fill="#222838" d="M 187.6875 39.210938 C 182.085938 45.824219 162.546875 69.636719 145.109375 99.976562 C 126.304688 132.695312 106.15625 179.90625 116.953125 219.046875 C 124.921875 247.925781 148.707031 268.941406 187.652344 281.507812 C 228.308594 270.074219 253.148438 249.773438 261.488281 221.164062 C 272.808594 182.347656 251.777344 134.519531 232.140625 101.238281 C 213.894531 70.304688 193.457031 45.894531 187.6875 39.210938 Z M 187.605469 285.839844 C 187.390625 285.839844 187.171875 285.804688 186.964844 285.742188 C 146.207031 272.730469 121.277344 250.671875 112.863281 220.167969 C 101.675781 179.601562 122.246094 131.230469 141.46875 97.796875 C 162.191406 61.765625 185.847656 34.839844 186.082031 34.570312 C 186.484375 34.117188 187.058594 33.859375 187.664062 33.855469 C 188.257812 33.851562 188.84375 34.109375 189.25 34.558594 C 189.496094 34.832031 214.183594 62.445312 235.796875 99.082031 C 255.855469 133.085938 277.300781 182.078125 265.5625 222.347656 C 256.738281 252.605469 230.703125 273.941406 188.175781 285.761719 C 187.988281 285.816406 187.800781 285.839844 187.605469 285.839844 " fill-opacity="1" fill-rule="nonzero"/><path fill="#d8d2d0" d="M 187.609375 285.839844 C 187.597656 285.839844 187.582031 285.839844 187.570312 285.839844 C 186.398438 285.816406 185.46875 284.847656 185.488281 283.675781 C 185.503906 282.804688 185.523438 281.929688 185.570312 281.070312 C 185.835938 271.777344 186.652344 262.953125 188 254.902344 C 195.402344 210.234375 219.152344 182.449219 262.75 167.472656 C 277.335938 162.433594 293.941406 158.886719 313.507812 156.640625 C 314.667969 156.511719 315.722656 157.34375 315.855469 158.507812 C 315.988281 159.671875 315.152344 160.722656 313.992188 160.855469 C 294.734375 163.066406 278.429688 166.542969 264.132812 171.480469 C 222.164062 185.902344 199.304688 212.628906 192.183594 255.597656 C 190.867188 263.460938 190.066406 272.089844 189.804688 281.25 C 189.757812 282.113281 189.746094 282.9375 189.730469 283.757812 C 189.707031 284.914062 188.761719 285.839844 187.609375 285.839844 " fill-opacity="1" fill-rule="nonzero"/><path fill="#d8d2d0" d="M 187.394531 285.757812 C 186.222656 285.757812 185.273438 284.886719 185.273438 283.71875 C 185.257812 282.867188 185.246094 282.085938 185.199219 281.308594 C 184.9375 272.09375 184.136719 263.464844 182.820312 255.601562 C 175.847656 213.535156 153.875 187.117188 113.671875 172.453125 C 98.75 167.011719 81.527344 163.21875 61.011719 160.855469 C 59.847656 160.722656 59.015625 159.671875 59.144531 158.507812 C 59.28125 157.34375 60.34375 156.511719 61.496094 156.640625 C 82.347656 159.046875 99.890625 162.914062 115.125 168.472656 C 156.917969 183.710938 179.757812 211.175781 187.003906 254.902344 C 188.351562 262.957031 189.167969 271.78125 189.4375 281.128906 C 189.480469 281.902344 189.496094 282.730469 189.511719 283.5625 C 189.511719 284.734375 188.5625 285.757812 187.394531 285.757812 " fill-opacity="1" fill-rule="nonzero"/><path fill="#d8d2d0" d="M 189.515625 283.640625 L 189.523438 283.640625 Z M 187.609375 285.839844 C 187.4375 285.839844 187.261719 285.816406 187.09375 285.773438 C 187.015625 285.753906 186.925781 285.726562 186.835938 285.699219 L 186.835938 285.695312 C 186.753906 285.675781 186.671875 285.644531 186.59375 285.613281 C 186.261719 285.511719 185.933594 285.40625 185.609375 285.300781 C 176.480469 282.308594 168.144531 278.863281 160.785156 275.042969 C 118.996094 253.414062 102.6875 218.085938 112.316406 170.042969 C 115.832031 152.496094 122.851562 133.339844 133.175781 113.105469 C 133.710938 112.058594 134.988281 111.648438 136.027344 112.175781 C 137.074219 112.710938 137.484375 113.988281 136.957031 115.03125 C 126.800781 134.921875 119.914062 153.710938 116.476562 170.878906 C 107.261719 216.839844 122.828125 250.621094 162.734375 271.277344 C 169.894531 274.992188 178.019531 278.351562 186.882812 281.253906 C 187.148438 281.339844 187.402344 281.421875 187.65625 281.5 C 204.289062 276.816406 218.410156 270.609375 229.625 263.046875 C 260.136719 242.5 270.816406 211.179688 261.371094 169.949219 C 257.441406 152.800781 250.050781 134.03125 239.40625 114.160156 C 238.855469 113.125 239.242188 111.84375 240.277344 111.285156 C 241.308594 110.734375 242.59375 111.121094 243.144531 112.15625 C 253.964844 132.359375 261.488281 151.484375 265.507812 169 C 275.382812 212.113281 264.109375 244.941406 231.996094 266.566406 C 220.261719 274.472656 205.515625 280.933594 188.179688 285.757812 C 187.992188 285.8125 187.800781 285.839844 187.609375 285.839844 " fill-opacity="1" fill-rule="nonzero"/></svg>